<svg xmlns="http://www.w3.org/2000/svg" width="220" height="3"><path fill="#020202" d="M81.395.693c.012-.013.02-.027.04-.036.005-.003.044.006.068.01l-.056.028zM66.837.64c-.03-.006-.063-.01-.086-.018-.007-.003.014-.02.023-.03l.065.025zm8.085.645l.05.024c-.024.007-.047.014-.073.02-.004 0-.021-.01-.034-.017zM74.29.671c-.012-.005-.037-.013-.034-.017.007-.011.025-.021.04-.032l.038.02-.044.03zm-29.4.897l.055-.02c.016.01.035.02.047.03.002.003-.023.01-.037.015a12.682 12.682 0 00-.064-.025zm3.959-.791c-.012-.011-.028-.022-.032-.034-.002-.004.024-.01.037-.015l.038.033zM50.56.79c.027.003.051.011.076.018-.014.005-.03.015-.04.014-.026-.004-.05-.012-.075-.018.013-.005.03-.015.04-.014zm.427-.021c-.013.005-.03.015-.04.014-.026-.003-.05-.011-.075-.018l.042-.016.073.02zm65.527.117l.042-.04.073.044zM54.399.75c-.012-.01-.028-.022-.033-.034-.001-.004.025-.01.038-.015l.038.033zm3.163.147c-.03-.005-.063-.008-.086-.017-.007-.003.014-.02.022-.03.022.01.044.017.066.026zm-.1.393c-.012-.01-.028-.022-.033-.034-.002-.004.024-.01.038-.015l.037.033zm7.29-.071c-.013-.006-.037-.014-.035-.018.007-.011.026-.021.04-.032l.039.019zM58.024.887c.026-.004.052-.011.08-.013.009 0 .023.01.035.017l-.076.015zm.257-.033c.007-.011.025-.021.04-.032.011.006.036.013.034.017-.008.012-.026.022-.04.032-.012-.006-.037-.013-.034-.017zm.078.142zm-.04.015c-.026-.004-.05-.012-.075-.018l.043-.016.072.02c-.013.005-.03.015-.04.014zm.053.218c.027.003.05.011.076.018-.014.005-.03.015-.04.014-.027-.003-.05-.011-.075-.018.013-.005.03-.015.04-.014zM102.3.844l.042-.04.073.043zm.115.003l-.042.04a13.967 13.967 0 01-.073-.043c-.158-.02-.327.012-.49-.045-.074-.025-.258.017-.392.016-.255-.002-.092.038-.061.077.01.012-.1.056-.161.058-.046.002-.103-.04-.155-.064.115-.047.064-.086-.041-.123-.136.085-.26-.063-.401-.008-.131.052-.25.034-.398-.007a.98.98 0 00-.372-.023c-.133.03-.194.045-.337-.002-.07-.023-.26.014-.384.036-.05.009-.063.051-.093.079-.025-.027-.043-.055-.076-.08a.22.22 0 00-.09-.02c-.192.073-.361-.006-.541-.015-.166-.009-.337.01-.505.004C97.601.72 97.4.7 97.197.686c-.154-.01-.305-.014-.407.05-.008.005-.586.052-.594.048-.112-.069-.17.041-.273.012a1.934 1.934 0 00-.234-.057c-.35-.056-.8-.071-1.299-.032-.082.006-.133.042-.206-.007-.126-.085-.338-.092-.495-.055-.13.03-.148-.016-.21-.018-.054-.002-.108.04-.172.058a.29.29 0 01-.118 0c-.2-.066-.482 0-.683-.088-.036-.016-.242.05-.378.062-.168.016-.326.118-.531.006-.048-.026-.225-.003-.335-.016-.187-.021-.222.045-.328.075-.142.04-.287.042-.11.125a.21.21 0 01-.079.032.6.6 0 01-.165-.004c-.136-.159-.446-.1-.746-.063a.24.24 0 00.074.042c.048.016.25.006.035.052-.053.012-.095.034-.138.052-.024.01-.038.026-.057.038-.02-.012-.053-.023-.057-.036-.007-.024.003-.048.07-.14-.06.034-.063.001-.051-.031.003-.01.019-.017.035-.025-.053-.1-.215-.052-.34-.064.016.018.037.036.045.055.01.021.007.044.01.067-.04-.006-.085-.008-.119-.018-.105-.03-.215-.06-.307-.097-.082-.033-.144-.02-.24-.016-.292.01-.617.029-.878-.015-.198-.033-.137.003-.182.04a.44.44 0 01-.185 0c-.115-.04-.182-.106-.372-.095-.111.006-.115.017-.055.055.017.01-.03.054-.072.063-.034.007-.103-.013-.156-.023-.016-.002-.025-.016-.039-.017-.088-.003.087-.13-.158-.06-.096.027-.248.017-.227.1.014.06.086.057.182.067.16.017.216.088.114.137-.024.01-.1.003-.152.001-.003 0-.015-.027-.002-.032.053-.023.132-.049-.012-.058-.073-.004-.153.017-.23.026-.004-.04-.021-.08-.01-.119.03-.096-.24-.06-.281-.122-.02.021-.033.045-.065.062a.232.232 0 01-.103.007c-.23-.092-.228-.092-.472-.018a.325.325 0 01-.109-.005c-.052-.13-.274-.075-.428-.069a1.872 1.872 0 00-.397.056c-.199.054-.272-.092-.452-.048-.03.008-.065.012-.098.017.02.01.039.03.06.03.254.011.117.052.03.076-.095.026-.453.018-.63.01-.079-.003-.162.036-.242.034-.085-.002.003-.151-.253-.057-.088.032-.268-.012-.424.026-.152.037-.292.04-.115.123a.212.212 0 01-.077.032c-.027.004-.09-.007-.094-.016-.015-.03-.028-.064-.015-.094.04-.092-.155-.124-.243-.184-.03.01-.076.019-.088.032-.108.121-.163.126-.469.038-.056-.002-.125.005-.168-.006-.315-.085-.636-.072-1.013-.02l.027.012c-.024.007-.046.015-.072.02-.004.001-.022-.01.02-.029-.036.004-.016-.005.003-.014l.01.005c.027-.024.016-.045.005-.045-.31-.006-.628-.073-.93.006-.12.032-.219-.09-.367-.007-.082.045-.252.058-.36.097-.163.059-.172.022-.157-.04.016-.067-.05-.095-.191-.064-.066.014-.09.035-.17 0-.113-.048-.195-.032-.217.038a.153.153 0 01-.073.084c-.144.082-.218.087-.436.034-.103-.025-.181-.098-.323-.028-.08.04-.118-.043-.255-.01-.201.05-.245.03-.293-.084-.024-.059-.088-.062-.189-.051-.085.01-.166.03-.251.033-.28.007-.028.055-.034.082-.004.016-.012.031-.017.047-.04-.006-.088-.008-.12-.018-.084-.029-.123-.087-.272-.07-.288.031-.344.029-.548-.02-.257-.063-.258-.064-.425.026-.031.016-.063.055-.073.054-.117-.017-.25.084-.363-.016-.041-.036-.071-.03-.17.033a.238.238 0 01-.096.015c-.033-.001-.093-.013-.093-.019.004-.089-.044-.155-.3-.143-.191-.113-.146.034-.208.032-.205-.003-.316.041-.407.11-.035.025-.076.036-.167.007a1.911 1.911 0 00-.439-.082c-.25-.015-.509.094-.768-.017-.02-.008-.015.075-.186.09-.28.026-.294.043-.43-.055-.043-.03-.392-.076-.452-.055-.337.123-.702.063-1.052.012-.13-.02-.189-.04-.237.032-.022.033-.117.056-.179.084-.038-.099-.353-.006-.388-.105-.011-.032.01-.055-.116-.036-.197.03-.412.043-.622.057-.18.012-.345.06-.546-.01-.099-.034-.297-.015-.45-.02-.002.015-.003.03.017.062l.029-.01c.017.01.035.02.048.03.002.003-.024.01-.069-.008.01.015-.012.006-.033-.002l.011-.004c-.161-.043-.364-.09-.394-.074-.145.076-.216-.028-.316-.014-.03.004-.047.023-.07.036L65.853.8c-.023-.016-.06-.031-.066-.048-.021-.06-.141-.068-.19-.038-.107.064-.162-.028-.252-.007-.066.015-.147.018-.269.04.008.004.013.008.011.01-.018.024-.047.046-.072.07-.014-.014-.03-.026.013-.07-.042.01-.016-.008.01-.025a.27.27 0 00.015.006c.046-.04.055-.074.046-.074-.105-.012-.243-.037-.316-.018-.123.03-.19.032-.289-.014-.03-.013-.126 0-.191 0 .015.096-.144.078-.268.068-.135-.01-.327-.066-.388-.045-.155.053-.27-.084-.428 0-.06.032-.283.004-.43.009-.216.007-.04.042-.02.068.011.015.013.045.006.046-.213.02-.255.117-.408.162a.25.25 0 01-.105.002c-.035-.014-.073-.037-.071-.055.003-.035-.044-.095.108-.089.207.008.082-.104.236-.11-.013-.011-.023-.024-.042-.033a.127.127 0 00-.055-.002c-.077.02-.148.045-.228.063-.13.028-.268.059-.348-.032-.04.011-.093.02-.117.035-.043.029-.117.076-.094.09.073.044.154.012.231-.012.035-.01.1-.003.152-.004-.025.022-.037.052-.078.065a2.462 2.462 0 01-.274.067c-.276.056-.292.055-.295-.064-.002-.055-.032-.094-.125-.126a.22.22 0 00-.098.014c-.032.016-.046.04-.067.06-.075-.035-.144-.088-.26-.035-.012.005.136.066.188.106.05.04.073.085.108.128.199-.012.4.042.61-.009.053-.013.222.053.328.088.127.042.245-.082.371.005.1.07.22.085.36.019a.443.443 0 01.143.02c-.002.1.169.081.309.092.27.021.536.051.807.07.05.005.155-.02.159-.035.02-.09.05-.156.28-.057.028-.012.073-.023.08-.038.014-.029.012-.06.014-.098-.029-.005-.062-.009-.085-.017-.007-.003.014-.02.022-.03.022.009.044.017.064.036 0-.001 0 0 0 0 .152.02.356-.008.36.107.17.013.306.125.512.039.066.067.243-.032.337.047.03.026.275.033.383.012.331-.064.666-.022.997-.012.234.008.466-.005.708.06.147.038.42-.008.635-.023.139-.009.277-.026.408-.048.115-.019.213-.064.33-.072.147-.01.322.025.454.005.143-.022.187.108.325.028a.205.205 0 01.075.012c.09.157.34.125.546.076.135-.033.252-.016.378-.021.216-.01.453.057.652-.027a.37.37 0 01.164.005c.179.09.364.02.542.013.164-.007.323-.067.487.014a.48.48 0 00.207-.006c.157-.062.37-.04.485-.013.445.105.842.054 1.253-.014.026-.005.093.033.14.05.096-.017.105.075.271.027.172-.05.41-.104.665-.025a.757.757 0 00.31-.03.836.836 0 01.43-.013c.392.106.82.042 1.221.08.029.003.092-.01.093-.016.011-.116.13-.026.22-.026.504.001 1.01.08 1.516.005.125-.018.295.012.444.023.041.003.109.027.115.023.281-.141.647-.036.97-.052.132.086.281.001.423.011.131.01.172-.006.064-.06a1.25 1.25 0 01-.24-.159c-.02-.016.017-.044.028-.067.028.02.065.038.081.059.038.05.253.015.242.11-.005.05.169.12.387.044.095-.034.216.008.063.066-.005.002.08.047.122.071.03-.02.048-.047.09-.06.083-.024.138-.107.29-.02.126.073.256-.063.44-.002.117.039.328.031.495.031.081 0 .162-.029.239-.047a3.53 3.53 0 01.374-.062c.03.007.053.021.08.032.169-.083.396-.012.587-.035.024-.003.042-.025.05-.039.045-.077.122-.043.24-.024.122.02.221.12.394.041.113.083.227.05.37.015.067-.018.187.005.283.004.07 0 .14-.01.21-.016-.034-.035-.07-.07-.102-.105-.021-.023-.037-.048-.055-.071.09.006.22 0 .261.022.073.04.132.1.123.15-.016.089.096.09.24.092.135.001.269.007.403.012.225.009.153-.026.065-.073-.02-.01.007-.05.04-.061a.329.329 0 01.148.004c.06.028.099.065.145.099.09.064.113.068.228-.011.113-.08.12.018.185.014.637-.038.964-.031 1.446.027a.239.239 0 00.102-.013c.032-.016.047-.04.069-.06.058.03.11.072.207.019a.588.588 0 01.112.033c.076.037.12.036.25.027.233-.015.541-.046.726.079.066.044.104.013.166-.002.152-.036.303-.019.473-.004.13.011.396.088.45-.059.002-.005.197 0 .299.007.105.009.237.053.305.038.379-.082.81.035 1.179-.051.201.098.233-.025.327-.05.12-.03.175-.053.335-.006.15.044.348.15.578.044.038.03.072.087.113.088.258.007.51.044.778.004.292-.044.56.009.781.118a.41.41 0 00.175.03 3.488 3.488 0 011.017-.058c.145.01.212-.01.22-.073a.68.68 0 01.184.001c.124.063.286.043.428.044.159.001.318-.02.475-.032.125-.01.235.094.366.011.136.052.278.02.423.016.09-.002.185.024.278.038.05-.173.23.037.321-.016.132.073.16.034.166-.027.037.003.1.003.107.012.123.149.112.141.486.055.088-.02.274.073.4-.01l1.168-.014c.198-.003.342.028.503.089.134.05.227-.11.46-.062.179.036.382.052.578.069.148.012.295.017.416-.043.049-.024.162-.026.248-.034.102-.01.178.09.317.012.048-.027.2-.021.305-.029.052-.003.14-.012.152-.003.127.089.248.013.375.012.122-.001.375-.053.374.082 0 .008.096.016.143.027.152.038.28-.111.442-.003.108.071.3-.075.404.029.198-.032.402-.058.592-.097.073-.015.095-.008.169 0 .378.049.764.074 1.128-.016-.016-.097.146-.068.27-.068.126 0 .237.006.198.08.162-.014.299.043.454.036a.248.248 0 00.124-.056c.064-.048.085-.035.12.009.022.028.319.04.39.024.063-.014.104-.081.208-.013.038.025.112.064.152.06.1-.008.26-.03.272-.058.035-.082.058-.043.186-.029.195.022.385.047.572.08.08.014.155.035.233.053-.018-.032-.05-.064-.049-.096 0-.016.052-.044.088-.046a.31.31 0 01.137.03c.061.038.105.081.156.122.163-.126.354.076.517-.002.14-.067.482.05.528-.103a.87.87 0 01.149.007c.131.024.262.05.386.081.133.033.086-.018.11-.038.016-.013.052-.036.06-.034.104.02.115.116.276.079.188-.044.231-.015.236.06.001.007.024.018.038.018.389.016.791.066 1.157-.01.217-.047.416-.098.668-.075.236.02.495-.023.71.058a.35.35 0 00.148.008c.126-.062.285-.027.43-.026.133 0 .274.019.4.008.148-.012.239.071.384.034.016-.004.028-.01.042-.016l.745.095c.421-.01.832-.058 1.258-.051.129-.07.216.011.318.015.084.003.187-.08.261-.074.128.011.23.02.37.013.196-.008.365-.01.502-.078.102-.05.18-.067.37-.015.312.086.807.098 1.216.103.158.002.318.014.486.04.28.045.62.097.898-.024a.436.436 0 01.188-.006c.125.067.203.023.33.002.156-.026.353-.095.52.03.084.062.294.051.457.019.08-.016.21-.147.246.015 0 .002.068.007.076.002.142-.094.364-.078.565-.06.163.014.33-.07.481.011.149-.062.283.007.423.014.136.007.277-.035.359-.03.26.016.5.037.731-.034a.426.426 0 01.163.004c.099.121.3.002.458.042.166.042.403.03.61.04.192.007.384.011.576.017.192.006.388.025.574.014.133-.008.247-.073.379-.078.13-.004.3.068.4.05.249-.041.428.034.638.05.07.005.118.038.131-.015.015-.06.119-.068.191-.039a1.1 1.1 0 00.576.041c.137-.025.252-.02.378-.02.187-.001.455.036.547-.004.177-.075.344.076.466-.015.252.03.533-.026.769.06.035.014.128-.001.194-.006.07-.005.14-.01.209-.018.163-.02.294.082.487.019.117-.038.303-.037.452-.06.22-.032.425-.04.625.03.055.018.07.087.2.038.08-.031.264-.008.238-.098-.02-.07.068-.068.215-.046.13.02.198.138.39.058.13-.054.188.068.378.016.17-.047.479-.02.646.09.02.012.138.012.189 0 .312-.07.454-.076.818-.054.237.014.468 0 .71-.017.556-.038.987-.08 1.77.04.088-.056.225.022.28-.005a.473.473 0 01.397-.016c.191.077.375.015.423-.027.096-.088.135-.052.279-.02.438.096.446.09.863.043.056-.006.127-.027.142-.048.035-.048.089-.05.132-.01.094.085.218.033.348.036.125.002.24.073.4.046.021-.003.03-.02.042-.04-.028-.005-.059-.009-.08-.017-.007-.002.014-.02.022-.029a.172.172 0 01.064.036c.21.071.448.11.672.057.152-.037.165.059.273.032.1-.024.27-.079.291-.07.161.07.184-.018.257-.034.165-.036.31-.023.472.01.178.037.362.073.553.09.134.012.292-.095.421.017l.476-.035c.2-.015.408-.089.595.018a1.8 1.8 0 01.47-.008c.211.019.419-.102.681-.018.039.013.183-.036.278-.056.306-.065.611-.093.943-.013.066.016.207-.028.272-.013.097.024.156.072.284.027a.342.342 0 01.119.006c.295.054.303.066.667.017.15-.02.294.103.407-.006.19.004.38.002.57.013.16.008.347-.021.474.057a.393.393 0 00.146-.004c.124-.138.323-.075.521-.037.056.01.131.006.196.003.067-.003.158-.027.196-.016.39.117.791.055 1.167.013.23-.026.426-.037.627.018.134.037.202.033.226-.038.002-.007.068-.016.1-.013.066.006.166.036.189.027.233-.094.448.015.486.057.076.085.15.1.258.04.194-.11.398-.076.662-.053.3.025.612.03.94-.003.322-.034.694.013 1.006-.076.028-.008.1.012.151.02.085.012.201.048.248.036.231-.06.497.001.705-.031.227-.036.438-.017.654-.026.087-.004.16-.05.24-.077.05.042.091.085.154.123.025.015.13.029.145.022.179-.08.398-.03.595-.027.199.003.422-.017.581.065.3-.089.65-.006.977-.037.121-.012.327-.066.48.016.026.013.13.008.192 0 .152-.017.298-.048.452-.061.176-.015.38.044.538-.029.083.069.284-.025.362.052.154-.076.267.04.43.023.073-.007.2.077.214-.03.001-.006.065-.018.093-.016.32.033.678-.035.96.109.108.055.362.06.554.082.02.002.07-.042.098-.067.023-.02.032-.043.048-.065.04.013.086.024.116.04a.97.97 0 00.298.066c.065.005.38-.036.113.072.09.05.349.047.456-.007.084-.041.162-.086.261-.12a.47.47 0 01.19.002c.23.06.435.05.677.008.198-.034.434-.104.664.006.042.02.19.02.261.006.203-.042.358-.036.56.022.137.04.359.004.5.089.125.076.1-.029.126-.03.236-.006.429-.118.707-.035.172.052.382.059.58.012.127-.03.25-.03.35.026.233.13.563.063.848.087.085-.141.355-.06.54-.082.13-.017.204-.031.3.025.107.064.27.068.384.014.2-.093.507-.021.713-.09.112.09.243.003.365.008.143.005.29-.016.434-.013.092.001.183.031.277.035.092.004.192-.023.278-.014.457.048.906.08 1.372.022a2.03 2.03 0 01.512.016c.166.024.284-.113.451-.01a.465.465 0 00.157-.029c.16-.09.445.015.603-.068.013.006.023.014.04.018.245.059.267.057.463-.025a.243.243 0 01.103-.011c.36.112.504.13.854.11.05-.002.104.006.155.01.105.01.082.129.28.062.135-.045.187.026.28.041a.404.404 0 00.146-.017c-.008-.1.162-.057.274-.07.063-.008.097-.056.143-.086.038.031.069.087.114.09.14.008.276.028.434-.008.252-.056.536-.107.818-.007.195-.062.314-.01.441.053.04.02.15.01.202.03.211.072.378-.086.625-.004.142.047.4.036.606.037.14 0 .289-.013.416-.037.142-.026.22.094.378.022.092-.043.203.08.369.01.071-.031.371-.021.431.013.173.1.302.018.438.006.217-.02-.04-.054-.003-.073a.36.36 0 01.144-.018c.204.106.563.016.763.12.164-.064.389-.02.573-.052.293-.051.604-.023.887.01.53.06.78.054 1.36.043.454-.008.944-.035 1.384.077.045.011.14.017.165.006.205-.092.513-.062.75-.113.032-.008.052-.026.086-.031.067-.01.169-.03.203-.017.26.093.586-.049.8.044.083.036.141.063.253.09.377.092.778.052 1.164.076.04.002.086-.057.149-.077.021-.007.101.02.154.03.048-.121.263-.072.433-.076.198-.003.395.038.601-.023.12-.035.488.04.197-.12a.141.141 0 01.06-.026c.033-.003.072.004.109.007-.065.132.422.055.375.18.092-.005.204.001.272-.019.106-.03.165-.041.258.01.05.028.149.047.232.056.232.025.497-.02.696.072a.13.13 0 00.056.002c.366-.11.579-.003.8.106.028.014.13.01.19.003.137-.015.267-.04.403-.056a.634.634 0 01.355.041c.064.03.167.02.194-.039.008-.017.105-.04.158-.037.094.004.184.033.278.036.086.003.223-.033.252-.02.186.09.369.005.545.017.138.01.236-.101.4-.015.013.006.198-.068.282-.06.193.018.368.07.577.07.025 0 .046.027.078.034.208.05.425-.041.573-.013.201.038.358.08.56.026.017-.005.03-.011.044-.016.131.093.275-.016.426.009.135.022.268.021.403.07.23.083.516.144.815.052.148-.046.22-.05.252.044.017.05.142.05.218.014.234-.11.518-.063.786-.036.173.017.335.055.503.083a.22.22 0 00.079 0c.163-.097.414-.044.62-.065.256-.027.477.006.715.026.252.02.52-.006.759.07.07.022.24.017.32-.005.122-.033.192-.036.287.012a.339.339 0 00.15.015c.325-.075.647-.022.974.007.1.009.218-.011.318-.027.019-.004.011-.058-.018-.08-.024-.02-.097-.028-.148-.042.072-.003.147-.014.215-.008.274.023.29.027.345-.065.027-.044.028-.079.162-.071.01 0 .043-.028.038-.042-.027-.068-.066-.136-.097-.204-.062-.132-.21-.21-.467-.21-.194 0-.257-.036-.3-.104a.183.183 0 00-.111-.054c-.348.017-.538-.133-.848-.152-.015 0-.024-.016-.04-.018-.167-.017-.243.152-.44.042-.127-.07-.275-.078-.449-.083-.403-.011-.806-.024-1.209-.037-.058-.002-.124-.012-.17-.003-.052.01-.083.039-.13.055a.25.25 0 01-.101.014 2.25 2.25 0 00-.607-.1c-.177-.004-.843-.017-1.03.002-.052.005-.146.017-.15.013-.104-.101-.292.044-.409-.033-.09-.06-.192-.032-.276.006-.121.056-.198.065-.208-.03a.358.358 0 00-.144-.022c-.116.02-.236.042-.328.077-.134.05-.22-.08-.374-.012-.064.029-.302-.014-.367.015-.165.073-.19-.056-.332-.03a2.917 2.917 0 01-.587.04c-.22-.003-.412-.059-.658-.032-.227.026-.494-.013-.743-.014-.275-.003-.552-.044-.83.015-.056.012-.218-.042-.391.003l.031.015c-.023.007-.046.015-.072.02-.004 0-.022-.01.02-.03-.034.004-.018-.004 0-.012-.006-.025-.043-.047-.09-.052-.18-.02-.363-.031-.545-.047-.015-.001-.026-.012-.04-.018-.318.134-.674.002-1.008.017-.042.002-.095.04-.104.065-.02.054.008.093-.176.036-.09-.028-.375-.092-.424.051l-.12-.014c-.235-.03-.468-.06-.701-.006a.32.32 0 01-.1.011c-.1-.014-.195-.046-.29-.046-.049 0-.093.08-.14.08a2.249 2.249 0 01-.485-.041c-.14-.036-.209-.018-.285.019-.093.044-.166.055-.247-.008-.05-.038-.099-.03-.206-.019-.23.025-.48.028-.659-.082-.083-.051-.195-.043-.22.031-.005.014-.04.025-.06.037-.17-.143-.525.044-.607-.046-.115-.126-.317-.09-.436-.07-.354.06-.711.082-1.079.047-.148-.014-.26.07-.438-.003-.098-.04-.341-.033-.502-.017-.12.011-.23.008-.345.01-.166.005-.339-.005-.498.01-.235.023-.48.063-.701.02-.12-.024-.222-.054-.357-.055-.21-.001-.429-.083-.635.004-.018.008-.08-.001-.119-.005-.07-.008-.142-.015-.206-.029-.24-.051-.455.09-.688.012-.206-.069-.456-.017-.653-.057-.2-.04-.308.08-.522.02-.144-.04-.358-.032-.54-.049-.232-.022-.462-.05-.695-.07-.238-.02-.479-.035-.719-.05a.348.348 0 00-.12.006c-.119.075-.293.058-.463.053-.144-.004-.296-.021-.413.032-.082-.065-.235-.04-.354-.058-.313-.046-.623.053-.93-.012a.448.448 0 01-.35.005c-.137-.068-.216.065-.325.004-.148-.083-.344.054-.523-.036-.154-.077-.368-.019-.563.004a.847.847 0 01-.37-.039c-.094-.034-.287-.076-.325.04-.005.012-.087.025-.134.025-.17 0-.413-.036-.496-.001-.131.056-.284-.07-.347.024l-.348-.058c-.102-.018-.298.034-.285-.074.002-.01-.074-.034-.118-.036-.19-.01-.387-.025-.574-.016-.15.008-.264-.094-.434-.02-.029.012-.186-.041-.289-.048-.09-.005-.258.025-.269.016-.084-.074-.169.034-.26-.01-.126-.061-.231-.057-.238.037-.001.017-.005.033-.005.05.002.075-.043.087-.169.025-.041-.021-.166-.029-.168-.044-.025-.14-.284-.038-.4-.078-.2.09-.443.089-.729.099-.369.012-.717.099-1.103.01a.4.4 0 00-.162.033c-.15.065-.277.113-.511.033-.1-.034-.3-.01-.452-.02-.31-.02-.642.018-.93-.075a.523.523 0 00-.22-.007c-.194.075-.41-.006-.623.021a1.97 1.97 0 01-.738-.075c-.15-.041-.319-.07-.48-.104-.092.053-.15.143-.366.057a.442.442 0 01-.037-.018c-.274.093-.54.096-.796-.02-.027.015-.048.033-.08.045-.12.043-.22.113-.42.036-.046-.018-.175.003-.265.008-.126.005-.25.015-.377.017-.218.005-.434-.031-.657.025a1.015 1.015 0 01-.433-.022c-.152-.06-.224-.007-.25.02-.08.087-.122.13-.17-.004-.189-.027-.378-.053-.564-.083-.061-.01-.124-.047-.169-.043-.099.01-.26.034-.267.06-.046.159-.159-.014-.248.008-.084.021-.24-.007-.32.015-.124.033-.176.013-.288-.013-.214-.048-.46-.11-.683-.003-.177-.054-.346.032-.525 0-.133-.025-.314-.076-.398-.056-.167.038-.32.031-.485.027-.154-.004-.308-.015-.46-.012-.236.004-.518-.014-.695.034-.203.055-.285-.058-.435-.022-.14.033-.282.071-.435.082-.14.01-.297-.011-.446-.022-.042-.003-.09-.028-.118-.024-.089.013-.166.047-.254.05-.08.004-.17-.03-.255-.031-.39-.004-.784-.059-1.17.01-.079.013-.19-.003-.285-.007-.654-.03-.897-.025-1.368.063-.14.026-.13.044-.185-.032-.044-.062-.247-.087-.433-.044a1.47 1.47 0 01-.728-.005c-.087-.023-.216-.02-.326-.026-.133-.007-.318.011-.39-.02-.185-.08-.32-.04-.496-.01-.169.028-.33.082-.551-.006-.147-.058-.433.007-.644-.059-.184-.057-.386.014-.565.025-.22.013-.434.026-.653.016-.43-.02-.848.06-1.283.014a.31.31 0 00-.145.045c-.112.07-.211.148-.412.034-.26.026-.495-.095-.773-.027a.796.796 0 01-.333-.011c-.197-.081-.311-.035-.469.016-.073.023-.213.013-.322.012-.341-.004-.683-.01-1.024-.016-.162.109-.297-.086-.48-.011-.131.053-.307.031-.464-.006a.286.286 0 00-.114-.001c-.04.013-.064.036-.095.054-.011-.022-.018-.046-.037-.067a.177.177 0 00-.075-.007c-.103.046-.183.037-.284-.01-.073-.032-.16-.033-.21.023-.018.021-.089.048-.137.048-.447.001-.886.045-1.341.014-.269-.018-.561-.054-.82.02-.087-.082-.263.006-.393-.043-.089-.033-.22-.06-.336.037-.135.114-.488.024-.735.058-.17.023-.374-.043-.547.018a.175.175 0 01-.077-.004c-.198-.096-.462-.092-.721-.106-.074-.004-.134-.054-.209-.078a.359.359 0 00-.103.005c.008.084-.15.077-.232.056-.177-.044-.323-.073-.468.01a.248.248 0 01-.079.018c-.218-.114-.445-.01-.663-.017-.143-.005-.418.06-.423-.088-.042.003-.084.005-.124.01-.36.05-.722.128-1.107.076a1.995 1.995 0 00-.543-.014c-.189.022-.413-.047-.592.032-.115.05-.162-.09-.326-.026-.07.028-.252.01-.382.005-.127-.006-.253-.022-.38-.033-.04-.003-.088-.01-.12-.005-.467.083-.953.036-1.435.03-.331-.003-.669-.06-.997.015a.407.407 0 01-.288-.055c-.427.209-1.031-.028-1.492.094-.302-.118-.716-.012-1.051-.116-.211-.065-.564.024-.801-.08-.002 0-.05.028-.083.03-.137.012-.075.171-.276.091-.168-.067-.216.015-.329.01-.29-.014-.595-.059-.881.014-.045.011-.14-.01-.21-.021-.066-.01-.127-.033-.195-.037-.22-.014-.431 0-.652.02-.173.016-.389-.061-.575-.055-.427.015-.852.05-1.27.09-.097.01-.138-.07-.26-.01-.056.028-.248.006-.379.005-.115-.002-.233 0-.344-.012a2.187 2.187 0 01-.293-.058 1.311 1.311 0 00-.536-.013 2.677 2.677 0 01-.593.029c-.133-.006-.132-.003-.13.087 0 .014-.013.038-.034.041a.625.625 0 01-.154.004c-.03-.004-.047-.03-.08-.035-.128-.021.002-.126-.218-.117-.215.008-.457-.053-.637.043-.09.049-.18.044-.281-.004a.886.886 0 00-.23-.06.553.553 0 00-.193.004c-.258.081-.279.09-.588.028-.1-.02-.17-.036-.239 0-.121.066-.224.073-.33-.008-.014-.012-.05-.018-.077-.027-.16.1-.284-.026-.426-.017-.085.005-.162.03-.247.04a3.68 3.68 0 01-.318.02c-.066.002-.135-.016-.202-.014a2.042 2.042 0 00-.262.02c-.185.028-.325-.061-.546-.025-.194.031-.453-.006-.683-.013l-.634-.02c-.21-.006-.422-.017-.633-.018-.275-.003-.552-.044-.828.018-.082.018-.238-.032-.363-.036-.112-.004-.227.016-.341.016-.043 0-.092-.024-.132-.04-.236-.09-.405.103-.55.037a.787.787 0 00-.583-.031c-.156.043-.314.03-.479.034-.215.006-.428.023-.64.04-.008 0 .01.055.016.085l-.193-.035a1.543 1.543 0 00-.154-.022c-.057-.005-.116-.004-.173-.006l-.043.04-.072-.044c-.096-.003-.22.01-.281-.012-.113-.039-.18-.077-.33-.023-.054.02-.217.003-.299-.018-.092-.025-.15-.038-.242-.007-.118.04-.222.018-.354-.01a2.525 2.525 0 00-.489-.036c-.047 0-.091.057-.137.088-.058-.018-.112-.04-.176-.05a.21.21 0 00-.112.034c-.038.032-.054.068-.08.103-.013-.039-.02-.078-.04-.116-.013-.026-.04-.051-.06-.077-.018.022-.02.052-.056.062a.92.92 0 01-.199.023c-.186.006-.41-.095-.558.03a.524.524 0 01-.141-.018c-.044-.127-.158-.099-.326-.041a.882.882 0 01-.3.036c-.441-.03-.91.026-1.328-.086-.03-.008-.097.017-.148.018-.142.003-.329.025-.417-.005-.146-.05-.25.004-.324-.004-.166-.017-.226.116-.404.03-.116-.055-.26.006-.377.013-.234.015-.483.014-.629-.044-.174-.07-.254 0-.415.016l.024.012c-.024.007-.046.014-.072.02-.004 0-.022-.01.02-.03-.024.003-.023 0-.014-.005-.196-.089-.219-.088-.274.011-.027.048-.047.078-.17.064-.156-.018-.308-.052-.465-.06-.13-.005-.279-.102-.407.005-.056.047-.103-.006-.16-.015-.162-.026-.375-.08-.49-.056-.18.038-.334.005-.494.015-.019.001-.04-.003-.057-.001-.126.014-.163.132-.39.042-.09-.035-.3-.025-.448-.016-.149.009-.275.018-.427-.012-.115-.023-.272-.001-.396-.02-.111-.016-.158.082-.278.017a.407.407 0 00-.156.025c-.114.072-.303.059-.462.075a.424.424 0 01-.178-.031c-.209-.099-.317-.1-.484 0-.017.01-.065.01-.098.015zM58.893.701c.026.003.05.011.075.017-.013.005-.03.016-.04.014-.026-.003-.05-.011-.075-.017.013-.005.03-.016.04-.015zm1.717.151c.027.004.05.012.076.018-.014.005-.03.016-.04.015-.027-.004-.05-.012-.075-.018.013-.005.03-.016.039-.015zm25.484.415c.007-.011.026-.021.04-.032.012.006.036.014.034.018-.007.011-.026.021-.04.032-.012-.006-.037-.014-.034-.018zm-57.408.496c-.026.005-.052.011-.079.013-.01 0-.024-.01-.036-.016l.076-.015zM13.75.931c-.03-.006-.063-.01-.086-.018-.007-.002.014-.019.022-.03l.066.026zm-7.469.116c-.012-.006-.037-.014-.034-.018.007-.011.026-.021.04-.032l.039.02zm-3.158.159c.027.004.051.012.076.018-.013.005-.03.015-.04.014-.026-.003-.05-.011-.075-.018.013-.005.03-.015.04-.014zM61.863.66c.029-.008.058-.024.083-.022.048.002.093.014.14.023l-.122.035-.1-.036zm-1.79.158c-.023-.015-.058-.029-.067-.045-.005-.012.026-.026.04-.04l.098.022-.07.063zm-1.61.328c.006-.022.027-.043.043-.064.024.007.07.014.07.021 0 .022-.016.043-.027.07-.041-.013-.087-.021-.086-.027zm-1.354-.3c.008-.022.039-.04.06-.06.018.012.052.026.05.039-.004.02-.03.04-.05.066-.028-.02-.064-.034-.06-.046zm-6.197.61c.019-.006.044-.02.056-.02.056.01.11.022.164.034l-.105.02zM90.32.64c.052-.004.106-.015.154-.01.054.004.103.023.155.035l-.178.021-.13-.046zM177 .81c.028-.011.065-.033.083-.03.053.007.098.025.125.032L177.2.88l-.2-.07zm-115.978.387c-.114.009-.244-.019-.367-.031.063-.068-.054-.12-.093-.18-.007-.01.029-.036.05-.037.05-.001.121 0 .148.014.03.015.009.046.028.067.022.025.064.047.097.07l.13-.056c.023-.011.041-.025.062-.037.018.009.047.017.052.027.007.015-.001.032-.007.085-.01.008-.04.074-.1.078zm-3.937-.088c-.006-.016-.013-.034 0-.047.013-.012.051-.02.081-.027.157-.033.416-.01.397-.137.057.002.158-.001.163.007.054.077.092.157.13.236a.81.81 0 01-.097.01c-.214.009-.407-.135-.634-.022-.016-.008-.038-.013-.04-.02zm-1.448.119c-.021-.032-.053-.064-.063-.096-.023-.08-.17-.05-.261-.053-.133-.006-.226-.016-.188-.085.04-.07-.026-.12-.139-.173-.055-.026-.237-.05-.11-.1.038-.015.2.019.294.04.215.046.434.092.425.221-.001.018.08.039.124.058l.101.041-.183.147zm4-.355c.04-.049.051-.075.156-.018.042.023.142.06.148.058.165-.063.176-.015.155.041-.01.029-.07.053-.086.081-.014.027-.018.06.01.083.028.02.105.027.16.04-.052.005-.104.015-.155.014-.266-.004-.266-.004-.283-.117-.002-.016.018-.036.002-.048a.216.216 0 00-.105-.042c-.069-.005-.142.004-.214.007.078.05.055.089-.064.12-.102.027-.196.06-.294.09-.006-.048-.014-.095-.016-.142-.003-.049.001-.047-.127-.022a.214.214 0 01-.097-.017c-.048-.153.026-.176.375-.118l.23.032c.065-.012.185-.018.204-.042zM56.51.99c.025.006.05.014.076.018.01.001.026-.01.04-.014l-.073-.02zm-.825-.163zm0 0c.095-.031.162-.06.243-.075.031-.006.132.014.137.027.07.169.31.142.588.115a.54.54 0 01.321.077c.03.024-.009.037-.111.032C56.836 1 56.789.98 56.788.98c-.096.053-.195.106-.274.164-.017.012.15.042.024.066-.112.02-.22-.08-.355-.017-.05-.025-.15-.056-.14-.075.057-.1-.12-.148-.236-.21-.044-.024-.076-.052-.12-.083zm-23.38.604c.012.006.026.017.036.016.027-.002.052-.008.079-.013l-.04-.019-.075.016zm2.06-.202l-.075.015c.012.006.026.018.036.017.027-.002.053-.008.079-.013l-.04-.019zm.238-.056l.043-.017c-.025-.006-.049-.014-.076-.018-.01 0-.026.01-.04.015l.073.02zm.575-.124c.013-.005.04-.01.038-.015-.005-.012-.021-.023-.033-.034l-.043.016zm3.77.413c-.014.011-.033.021-.04.033-.003.003.022.01.034.017l.044-.03zm.626-.112c.002-.004-.022-.012-.034-.018-.014.01-.033.02-.04.032-.003.004.022.012.034.017.014-.01.033-.02.04-.031zM44.59.975L44.553.94c-.013.006-.04.012-.038.016.005.011.021.023.033.034l.043-.016zm.32.398c.025.007.049.015.075.018.01.001.027-.01.04-.014-.025-.006-.049-.015-.076-.018-.009-.001-.026.01-.039.014zm.406-.012c-.014.005-.04.011-.038.015.005.012.02.023.032.034l.043-.016zm.695-.548c.025.006.049.015.075.018.01.001.027-.01.04-.014-.025-.006-.049-.015-.076-.018-.009-.001-.026.01-.04.014zm1.033.601c-.013.006-.04.011-.038.016.005.011.02.022.032.034l.043-.016zm.531-.107c-.025-.006-.048-.014-.075-.018-.01-.001-.026.01-.04.015l.073.02zm.6-.038l.037.033c.013-.005.04-.011.037-.015-.004-.012-.02-.023-.032-.034l-.043.016zm.41-.203c-.014.005-.04.01-.038.015.004.012.02.023.032.034l.043-.016a4.242 4.242 0 01-.038-.033zm-.082.22c.025.006.049.014.075.018.01.001.026-.01.04-.014-.025-.007-.05-.015-.076-.018-.01-.001-.026.01-.04.014zM50.735.96c-.025-.006-.049-.014-.076-.018-.009 0-.026.01-.04.015l.073.02zm-21.205.484c-.025-.007-.049-.015-.076-.018-.009-.001-.026.01-.04.014l.073.02zm-5.459-.292c-.014.01-.032.02-.04.032-.002.003.022.01.035.017l.044-.03zm-.236.042c-.013.005-.039.01-.038.015.005.012.021.023.033.034l.043-.016zM11.662.99c-.012-.006-.026-.017-.036-.016-.027.001-.052.008-.079.012l.04.02zm-.553.305c.014-.01.033-.02.04-.032.002-.004-.022-.012-.034-.017l-.045.03zM8.525 1.14c-.025-.006-.048-.015-.075-.018-.01-.001-.027.01-.04.014l.072.02zm-4.934.738c-.025-.006-.05-.014-.076-.017-.01-.001-.026.009-.04.014l.072.02zm-1.488-.145c-.025-.006-.048-.014-.075-.017-.01-.002-.027.009-.04.014l.073.02zm-.355-.118c.003-.004-.022-.011-.035-.017-.013.01-.032.02-.04.032-.001.004.023.011.035.017.014-.01.032-.02.04-.032zM53.257.939l.055.067c.027-.013.066-.025.077-.04.008-.012-.02-.028-.03-.042l-.102.015zm-.92.134zm0 0c-.025-.02-.04-.04-.053-.04-.05 0-.102.007-.153.011.014.011.025.031.04.032.051.003.103-.001.166-.003zm-3.524-.14c-.015.013-.046.027-.04.038.008.017.043.03.067.045l.07-.062zm-.522.15c0-.007-.046-.014-.07-.02-.016.02-.037.041-.043.063-.002.006.044.014.085.027.012-.026.028-.048.028-.07zm-4.266.296c-.014.013-.046.027-.04.039.008.016.044.03.068.045l.07-.063a9.906 9.906 0 00-.098-.021zm.015-.464zm0 0c.062.006.113.014.164.014.016 0 .03-.02.046-.03-.05-.007-.098-.016-.149-.02-.013 0-.032.02-.06.036zm-2.94.25c-.031-.012-.06-.03-.096-.034-.026-.004-.063.007-.095.012l.037.044.155-.023zm-23.055.156l.154-.022c-.031-.012-.06-.029-.096-.034-.026-.004-.064.008-.096.012l.038.044zM9.48 1.237c.027-.014.065-.025.077-.04.008-.012-.02-.028-.031-.042l-.102.015.056.067zM51.525.978c.05.011.1.027.156.033.024.003.059-.012.089-.02L51.586.92l-.061.058zm1.436.132c.025-.022.06-.043.073-.066.006-.01-.03-.026-.047-.04l-.164.078.138.028zm-37.92.458c-.03-.001-.095.036-.088.041a.38.38 0 00.134.053c.019.004.07-.022.153-.052-.093-.021-.145-.04-.2-.042zm29.874-.269c.137.004.213.009.288.007.016 0 .034-.019.043-.03.002-.004-.023-.016-.037-.016-.076-.005-.155-.013-.226-.007-.091.008-.215-.045-.273.024l.205.022zm-.628.03c.036-.014.084-.028.112-.047.016-.012.002-.032.002-.048-.223.02-.114-.082-.216-.105a.135.135 0 00-.04.015c-.074.04.02.17.142.185zm7.634-.054zm0 0l-.34-.117c-.021.012-.065.031-.058.035.067.041.14.081.22.117.011.005.08-.015.178-.035zm.657-.256l-.001.014a.768.768 0 01.023.02l.014-.006a.486.486 0 01-.036-.028zm-.001.014c-.035-.028-.05-.034-.064-.04-.009.011-.03.028-.023.03.023.009.057.012.086.018zm.023.02l-.027.01.065.025a1.461 1.461 0 00-.038-.035zm.014-.006c.046.033.063.028.061.027-.012-.012-.031-.021-.048-.032zm-18.83.007zm-.033 0a.353.353 0 00.09-.027c-.024-.004-.063-.013-.069-.01-.02.01-.026.023-.039.036zm-.045.009l-.024-.012-.058.027.082-.015zm.013.006c-.076.019-.064.026-.06.026.026-.006.048-.013.072-.02zm.066-.015h-.034a2.705 2.705 0 01-.045.009l.013.006c.017-.004.039-.01.066-.015zM13.75.931c.116.02.295.071.34.055.23-.084.405.025.605.029.097.001.208.082.215-.028.034.006.083.008.1.02.028.018.037.041.054.063.021-.02.04-.042.066-.062a.15.15 0 01.07-.031c.146-.016.262.12.432.021.002 0 .06.01.075.02.1.064.198.097.33.016a.3.3 0 01.14-.026c.218.037.445-.052.655.018.153-.076.354.06.512-.017.071-.034.141.068.255.005.042-.023.212-.003.324-.004.127-.001.257.024.377-.026.032-.014.233.042.256.03.138-.072.177.047.27.023.094-.023.19-.048.268-.08.122-.05.23-.087.366-.004.015.01.07.007.107.009.154.005.331-.01.455.02.144.033.189-.083.337-.015.118.055.27.026.398-.016.034-.011.112.003.17.003.178-.001.301.039.45.08.135.039.133-.12.342-.104a.34.34 0 01.097.019c.056.025.103.054.138-.004.015-.024-.012-.07.113-.033.203.061.435.04.654.037.047 0 .085-.068.132-.069.08-.001.162.028.245.042.084.014.17.034.255.037a1.62 1.62 0 00.282-.021c.206-.032.391.078.596.02.329.052.66-.05 1.005.025.24.053.568-.021.806.079.04-.108.415.032.423-.102 0-.003.07-.01.105-.006.066.005.14.029.194.022.299-.036.582-.078.91-.016.167.031.403.042.566.016.242-.038.434-.092.553.06a.11.11 0 00.037.009c.046-.027.09-.055.133-.082.065.03.122.066.198.091.03.01.108.005.152-.004.588-.123.696-.124 1.388-.043.157.018.342.031.468-.044A.764.764 0 0131.34.9a.236.236 0 01.091.02c-.008.059.104.087.168.061.117-.047.262-.016.362-.04.154-.038.266-.08.28.042l.113-.003c-.017-.082.115-.065.227-.062.134.004.27.003.402.014.143.012.292-.012.436.039.06.02.222-.02.332-.014.227.012.434-.018.65-.028.206-.01.421.012.632.015.186.002.41.024.548-.011.248-.063.373.057.566.046.088-.006.213 0 .257-.023.148-.077.338-.065.521-.05.384.029.798-.03 1.155.08.36-.085.741-.01 1.111-.009.25.001.46-.113.732-.035a.21.21 0 00.08-.024c.103-.061.243-.067.405-.056.151.01.361-.013.447.022.236.097.245-.059.394-.046.113.01.263-.01.338.016.157.053.289.013.43.008.235-.007.516.011.69-.037.177-.05.22.019.322.024.193.01.262-.053.38-.088.02.019.033.04.061.057.02.012.085.027.09.025.132-.059.293-.017.436-.015.142.001.287-.008.43.042.075.026.255-.008.387-.01.05-.001.56 0 .592-.006.62-.115.62-.114 1.152-.099.305.01.613.028.916.02.325-.008.405.004.5.128.015.021.1.033.152.05.025-.02.082-.047.069-.056-.125-.086-.06-.13.154-.133.08 0 .185-.08.198-.018.02.102.19.09.272.075.192-.036.35.009.547.04l-.007.003c.022.009.044.017.034.002a3.246 3.246 0 01-.027-.004l.023-.009a.079.079 0 00.004.013c.045.018.07.011.068.01-.012-.012-.031-.022-.048-.032l-.024.01c-.008-.031.008-.051.017-.05.27.02.538.04.805.067.03.003.045.037.066.058.036.035.06.073.107.105.046.032.114.059.172.088.126-.05.01-.083-.053-.122-.028-.018-.01-.049-.04-.066-.055-.032-.08-.07.035-.053.186.028.371-.117.54.011.04-.102.421.034.419-.106a.63.63 0 01.183-.011c.098.017.185.048.272.076.118.039.171.038.236-.03.056-.06.099-.055.215.03.066.048.074.035.123-.003.053-.042.083-.041.108-.007.023.033.071.074.105.027.07-.1.208-.118.418-.11a.549.549 0 00.198-.025c.134-.06.197-.07.262.027.016.024.232.059.306-.023a.299.299 0 01.086-.047c.157.046.31.094.463.143-.061.025-.178.055.02.067.059.003.329.084.366.1.105.05.087.083-.022.122-.1.035-.186.077-.275.118-.069.03-.133.064-.2.096-.086-.045-.195-.084-.251-.134-.037-.033 0-.081.005-.122.007-.05.03-.093-.154-.103-.064-.003-.11-.075-.172-.113-.017-.01-.068-.011-.103-.017-.008.049-.032.099-.015.146.006.015.118.025.183.036.144.024.204.107.092.141-.023.007-.102-.02-.156-.031-.01.039-.034.078-.023.115.008.027.185.066-.028.067-.117 0-.262.109-.322.017-.08-.12-.212-.082-.362-.06-.19.026-.347.085-.587.014-.094-.029-.414-.086-.489.059a.45.45 0 01-.152.01c-.237-.022-.469.033-.716-.016-.175-.035-.143.046-.155.09-.138.04-.288.044-.33-.034-.04-.076-.068-.108-.242-.058a.303.303 0 01-.118-.008c-.106-.03-.219-.059-.307-.097-.148-.065-.14-.006-.138.03.003.063-.045.086-.199.078-.126-.006-.255.004-.383.008l.06.071c-.09-.003-.185.001-.268-.012-.056-.008-.08-.053-.164-.014-.177.082-.362.083-.595.02-.194-.052-.269-.032-.324.04-.056.072-.054.071-.234.004a.264.264 0 00-.11-.007.742.742 0 01-.399.063 1.073 1.073 0 00-.37.027.877.877 0 01-.42-.032c-.15-.052-.395-.022-.552-.088-.193.073-.433.016-.64.038-.108.01-.194.054-.29.082-.044.009-.09.016-.132.027-.107.026-.192.03-.188-.037.003 0 .004 0 0 0 .045-.008.063-.018.083-.027-.025-.004-.064-.013-.07-.01-.019.01-.026.024-.039.036l.024.001c-.203.004-.4-.044-.553.03-.124-.082-.355.038-.476-.051-.162.08-.345-.022-.468-.003-.308.047-.6-.008-.896-.002-.185.004-.372-.024-.52.054-.064.034-.695.02-.793.008-.136-.018-.266-.119-.428-.018-.008.004-.122-.024-.186-.037-.006-.001-.479.01-.483.012-.147.075-.335.06-.509.025-.066-.013-.084-.02-.168-.01-.276.033-.585-.013-.859.044-.228-.083-.465-.04-.709-.025-.196.012-.411-.032-.588.034-.212-.063-.374-.017-.558.028-.06.015-.195-.029-.3-.04a.623.623 0 00-.193.003c-.244.074-.247.082-.473.036a1.882 1.882 0 00-.586-.02 1.92 1.92 0 01-.532-.007c-.152-.033-.28-.06-.394-.011-.143.06-.224-.078-.372-.011-.073.033-.23.03-.35.044-.119.014-.258.016-.352.044-.143.043-.167-.059-.33-.033-.15.024-.366-.023-.552-.05a.178.178 0 00-.064-.035c-.009.01-.03.026-.023.029.02.007.048.011.074.016-.087.062-.158.144-.35.057-.124-.056-.186-.094-.265.01-.012.016-.215.015-.32.003-.716-.083-.714-.084-1.17.047-.019.005-.076-.017-.118-.023-.052-.008-.115-.023-.157-.016-.501.075-1.01-.004-1.514.002-.18.002-.403-.054-.534.027-.183.113-.322-.02-.48-.01-.016.002-.04.01-.042.015-.021.137-.177.028-.27.024-.184-.006-.372.005-.531-.061a.555.555 0 00-.25.016c-.133.097-.32.033-.403.005-.259-.09-.547-.055-.817-.06-.06 0-.097.1-.312.083a9.196 9.196 0 00-.976-.03 4.955 4.955 0 01-.886-.03 1.332 1.332 0 00-.276.002c-.122.01-.24.025-.359.04-.134.019-.267.04-.4.058-.113.015-.175-.084-.326-.025-.057.023-.383-.056-.45-.088a.415.415 0 00-.154-.046c-.13.022.03.051.014.063a.362.362 0 01-.179.074c-.17.006-.4.02-.505-.019-.192-.073-.331-.017-.492-.008-.22.013-.44.084-.659-.019-.037-.017-.148-.005-.225-.009-.594-.03-1.15.072-1.737.074-.086 0-.147.016-.24-.01-.182-.05-.416-.073-.573-.01-.168.067-.341.06-.524.048-.253-.018-.5-.055-.754-.068-.136-.007-.277.025-.418.032-.164.008-.337.02-.497.006-.245-.02-.44.03-.653.046-.204.016-.447.08-.635.036a1.955 1.955 0 00-.64-.056c-.226.026-.4-.03-.601-.027-.115.002-.22-.005-.307.039-.09.045-.187.078-.325.01a.572.572 0 00-.257-.018c-.173.064-.376.04-.54.02-.21-.027-.408.06-.604-.008-.059.101-.303.072-.448.113-.075.021-.159.06-.23.055-.181-.01-.059-.078-.095-.117-.007-.008-.071-.007-.109-.01.001.075-.033.085-.174.029a.597.597 0 00-.272.016c-.168.108-.17.122-.367.079-.19-.041-.126.02-.127.046-.003.049-.028.075-.16.07a.576.576 0 00-.196.024c-.043.018.042.085-.142.036-.339-.089-.613-.099-1.037-.107-.194-.003-.393.01-.598-.05-.153-.045-.409-.035-.614-.028-.09.002-.161.06-.254.085-.115.03-.293.038-.356.08-.146.096-.245-.035-.376-.005a1.275 1.275 0 01-.357.037c-.34-.026-.675-.069-1.012-.105-.064-.006-.16-.023-.19-.011-.198.077-.35.007-.495-.033-.387-.106-.383-.109-.635-.117-.115-.004-.232-.004-.346-.012-.187-.012-.383-.123-.305-.2.07-.07.117-.103-.105-.109l.01-.049c.172.024.276-.019.406-.055a.93.93 0 01.367-.015c.163.043.274.038.322-.03.046-.066.113-.09.22-.038.21.099.46.065.668.036.131-.018.278-.05.351-.009.126.07.176-.018.283.01l-.013.006c.022.008.043.017.034.002.045.018.07.01.068.009-.013-.012-.031-.021-.048-.032l-.023.01c-.016-.054-.063-.101.074-.106.143-.006.289.026.428-.03.08-.032.229-.038.35-.044.162-.009.315.013.488-.028.093-.021.27-.045.405-.041.175.005.381-.055.465-.032.216.062.275-.01.395-.042a.544.544 0 01.168.003c.142.02.316.13.383-.025.026.003.06.004.08.011.138.054.25.038.4.002.15-.036.352-.087.515-.04.2.056.364-.003.544.006.058.002.128-.057.204.002.221-.03.44.048.637.024.226-.027.409.007.573.047.127.03.193.037.286-.005a.535.535 0 01.44-.02c.024.008.108-.011.162-.02.162-.026.368-.094.475-.072.207.044.352.054.563.016.174-.031.404.018.561-.072.08-.046.237-.067.364-.096.093-.02.168-.021.202.038.069.123.087.129.258.067.137-.049.24-.076.364.005.1.064.238.083.387.042a.397.397 0 01.245-.002c.105.026.245.038.369.04.147 0 .08-.06.102-.094zm18.191.66a.715.715 0 00-.012-.001.585.585 0 01.013-.01l-.001.012zM2.863 1.397a.113.113 0 01.003.014.202.202 0 00-.02-.007zm41.707.14zm172.679.276l-.039-.02c.026-.004.051-.01.079-.012.01 0 .024.01.036.016zm-.166-.065l-.043.016c-.012-.011-.028-.022-.032-.034-.002-.004.024-.01.037-.016l.038.034zm-.87.033l-.04-.02c.026-.004.052-.01.079-.012.01 0 .024.01.036.016zm-.063-.186zm.04.019c-.027.005-.052.011-.08.013-.01 0-.024-.011-.036-.017l.076-.015zm-2.108.09l-.043.017c-.011-.012-.027-.023-.032-.034-.002-.005.024-.01.037-.016zm-4.535.553l.045-.03c.012.006.037.013.034.017-.007.012-.025.022-.04.032l-.039-.019zm-1.236-.632l-.043.017c-.011-.012-.028-.023-.032-.035-.002-.004.024-.01.038-.015l.037.033zm-.623.568c.014-.005.03-.015.04-.014.027.003.05.011.075.017-.013.006-.03.016-.04.015-.026-.004-.05-.012-.075-.018zm-.604.087l-.043.017c-.011-.012-.027-.023-.032-.035-.001-.004.024-.01.038-.015zm-1.235-.713c-.012-.006-.037-.013-.034-.017.007-.012.025-.022.04-.033.011.006.036.014.033.018-.007.011-.025.021-.039.032zm-.185.638c-.012-.006-.037-.014-.034-.018.007-.011.026-.021.04-.032.012.006.036.014.034.018-.007.011-.026.021-.04.032zm-.028-.274c.013-.005.03-.015.04-.014.026.004.05.012.075.018-.013.005-.03.016-.04.014-.026-.003-.05-.011-.075-.018zm-.232-.148l-.043.016c-.011-.011-.027-.022-.032-.034-.002-.004.024-.01.038-.015l.037.033zm-.624-.108l-.04-.019c.027-.004.053-.01.08-.013.01 0 .024.011.036.017zm-4.328.096c.013-.005.03-.015.04-.014.026.004.05.012.075.018-.013.005-.03.016-.04.014-.026-.003-.05-.011-.075-.018zm-1.333.412l-.043.016c-.012-.011-.027-.022-.032-.034-.002-.004.024-.01.038-.015zm-1.162-.471l-.04-.019c.027-.004.052-.011.08-.013.009 0 .023.011.035.017zM80.52 1.143l-.043.017c-.012-.012-.028-.023-.032-.035-.002-.004.024-.01.037-.015l.038.033zm-.022-.336L80.46.788c.027-.005.052-.011.08-.013.009 0 .023.01.036.016zm116.416 1.218l-.072-.02c.014-.005.03-.015.04-.014.026.004.05.012.075.018zm-.919-.583l.045-.03c.012.005.036.013.034.017-.008.011-.026.021-.04.032zm-1.772.044l-.043.016c-.012-.01-.027-.022-.032-.034-.002-.004.024-.01.038-.015zm-2.544.54l.073.02c-.014.005-.03.016-.04.015-.027-.004-.05-.012-.076-.018zM79.704.683l-.04-.019c.027-.004.052-.01.08-.013.009 0 .024.011.036.017zm-.208.471c.013-.005.03-.015.04-.014.026.003.05.011.075.018-.013.005-.03.015-.04.014-.026-.004-.05-.012-.075-.018zm109.545.158l-.044.03c-.012-.005-.037-.013-.034-.017.007-.011.025-.021.04-.032zm-2.782.077l-.043.016c-.012-.011-.028-.022-.032-.034-.002-.004.024-.01.037-.015zm-1.475-.258l-.044.03c-.012-.005-.037-.013-.034-.017.007-.011.025-.021.04-.032zm-2.616.142l-.039-.019c.026-.005.051-.011.08-.013.009 0 .023.01.035.017zm-115.02-.146l.044-.03c.012.005.037.012.034.016-.007.012-.025.022-.04.032zm9.33-.01l-.043.017c-.012-.011-.028-.023-.032-.034-.002-.004.024-.01.037-.015zm-.564.026c.013-.006.03-.016.04-.015.026.004.05.012.075.018-.013.005-.03.015-.04.014-.026-.003-.05-.011-.075-.017zm75.224.608l-.039-.02c.026-.004.052-.01.08-.012.009-.001.023.01.035.016l-.076.016zm-4.303-.671c-.012-.006-.037-.013-.034-.017.007-.012.026-.022.04-.032.012.006.036.013.034.017-.008.012-.026.022-.04.032zm-4.305.642l-.043.016c-.012-.011-.028-.022-.032-.034-.002-.004.024-.01.037-.015zm-7.788.024c-.013-.006-.037-.013-.035-.017.008-.011.026-.021.04-.032.012.006.037.013.034.017-.007.012-.025.022-.04.032zm-11.671-.724l-.043.016c-.011-.011-.027-.022-.032-.034-.002-.004.024-.01.037-.015zM63.91.814l-.044.03c-.012-.005-.037-.013-.034-.017.007-.01.025-.02.04-.032zm10.006.094c-.013-.006-.037-.014-.035-.018.008-.011.026-.021.04-.032.012.006.037.014.034.018-.007.011-.025.021-.04.032zm42.46.561l-.04-.019c.026-.005.052-.011.08-.013.009 0 .023.01.035.017l-.076.015zM72.253.782c.013-.005.03-.015.04-.014.027.003.05.011.075.017-.013.006-.03.016-.04.015-.026-.004-.05-.012-.075-.018zm-.119.41l-.039-.019c.026-.005.052-.011.08-.013.009 0 .023.01.035.017zm38.69.08l.042-.015c.012.01.028.022.033.034.001.004-.024.01-.038.015zm-.046.113l-.043.016c-.011-.011-.027-.023-.032-.034-.002-.004.024-.01.037-.015zm-.225-.435c-.012-.006-.037-.014-.034-.017.007-.012.025-.022.04-.033.012.006.036.014.034.018-.008.011-.026.021-.04.032zm-3.105.233l-.043.016c-.012-.011-.027-.022-.032-.034-.002-.004.024-.01.037-.015zm-42.293-.118l-.043.016c-.012-.011-.028-.022-.033-.034-.001-.004.025-.01.038-.015l.038.033zm41.747.359l-.04-.019c.027-.004.052-.011.08-.013.01 0 .024.011.036.017zm-.422-.063l-.073-.02c.013-.004.03-.015.04-.014.027.004.05.012.075.018zm-3.195-.158l-.043.016c-.012-.011-.028-.022-.033-.034-.001-.004.025-.01.038-.015zm-.06-.214l.043-.017c.012.012.028.023.033.035.002.004-.025.01-.038.015zm-1.048.08l.044-.03c.012.006.037.014.034.017-.007.012-.026.022-.04.032zm-5.09.25L97.05 1.3c.026-.005.052-.011.079-.013.01 0 .024.01.036.017zm-1.211-.013l-.045.03c-.012-.005-.037-.013-.034-.016.007-.012.025-.022.04-.033zM66.813.861zm.04-.014c.026.004.05.012.075.018-.013.005-.03.015-.04.014-.026-.003-.05-.011-.075-.018.013-.005.03-.015.04-.014zm21.744.21l-.072-.02c.013-.005.03-.015.04-.014.026.003.05.011.075.017l-.043.017zm-1.646-.051l-.04-.019c.027-.005.052-.011.08-.013.01 0 .024.01.036.017zM67.597.942l-.044.017c-.01-.012-.027-.023-.032-.035-.002-.004.025-.01.038-.015zm16.644.16c.013-.005.03-.015.04-.014.026.004.05.012.075.018-.013.005-.03.016-.04.015-.027-.004-.05-.012-.075-.018zm-.488.077l-.044.03c-.012-.005-.037-.012-.034-.016.007-.012.025-.022.039-.032zm6.751-.058c-.006-.027-.017-.05-.012-.071.002-.007.048-.011.074-.016.011.021.028.043.029.065 0 .006-.047.012-.09.022zM85.677.78a70.87 70.87 0 00-.126-.033c.03-.007.063-.022.09-.02.048.004.094.017.14.027zm-8.36.17c-.04-.003-.088-.004-.088-.007a.141.141 0 01.007-.064c0-.002.07 0 .072.002.007.021.006.043.008.069zM75.023.783c-.063.002-.115.006-.165.004-.016-.001-.028-.021-.04-.033.05-.004.1-.01.152-.01.014 0 .028.02.053.04zm-2.54.134a31.87 31.87 0 00-.125-.033c.03-.007.063-.022.089-.02.049.004.094.018.141.027zm-.929-.043c.028-.017.047-.037.061-.036.05.003.1.013.149.02-.015.01-.03.03-.047.03-.05 0-.1-.008-.163-.014zm-3.819.215l-.07.063c-.023-.015-.059-.029-.067-.045-.005-.011.025-.026.04-.039zM64.52.82a23.43 23.43 0 01-.126-.032c.03-.007.063-.023.09-.02.048.003.093.017.14.027L64.52.82zm-.397.11l.102-.016c.011.014.04.03.03.041-.01.016-.049.028-.076.041l-.056-.067zm138.929.858c-.007-.008-.027-.026-.031-.045a.258.258 0 01.09-.012c.037.006.066.022.097.034l-.156.023zm-.39.075c-.006-.027-.018-.05-.012-.071.001-.007.048-.012.074-.017.01.022.027.044.028.066 0 .006-.047.011-.09.022zm-5.423-.09l-.07.062c-.024-.015-.06-.028-.068-.044-.006-.012.026-.027.04-.04zm-.377-.16l.101-.016c.012.014.04.03.031.042-.011.015-.05.027-.076.04l-.056-.066zm-3.184.281c-.007-.007-.026-.025-.032-.044a.27.27 0 01.092-.012c.036.005.064.022.096.034l-.156.022zm-8.13-.746l-.15-.032c.035-.01.066-.024.104-.027.027-.002.061.011.093.018zm-37.11.474l.127.032c-.03.008-.063.023-.09.02-.049-.003-.094-.017-.14-.027l.103-.025zm53.72.336c-.032-.02-.075-.04-.098-.063-.009-.009.023-.025.037-.039l.186.072zm-109.391-.78l.086-.08c.017.02.05.043.047.063-.007.029-.041.056-.063.084a7.453 7.453 0 00-.07-.067zm-26.971-.022zm-.143-.09c.033-.004.081-.017.094-.012a.385.385 0 01.11.062c.007.006-.035.023-.061.04l-.143-.09zm41.156.268l-.142-.075c.034-.01.091-.03.097-.027.043.018.083.04.107.062.008.007-.035.023-.062.04zM66.633.87a40.332 40.332 0 00-.158-.07c.048-.007.124-.024.14-.018.041.02.059.048.079.074.002.002-.047.01-.06.014zm72.99.608c-.123-.045-.16-.054-.183-.067-.028-.016-.046-.035-.068-.052.051-.004.13-.017.147-.008.039.02.046.05.105.127zm52.947.3c.053-.012.097-.028.11-.024.087.024.168.053.25.08-.03.008-.072.024-.088.02-.09-.02-.175-.048-.272-.075zm15.009-.152c-.094.019-.155.04-.175.034-.048-.014-.077-.04-.114-.062.04-.012.088-.036.116-.032.053.007.094.031.173.06zm9.268.812c.097-.015.153-.03.207-.03.03.002.087.043.078.047a.434.434 0 01-.144.045c-.02.003-.064-.027-.14-.062zM193.27 1.87c.038 0 .08-.002.111.004.044.009.09.021.116.038.015.01-.008.03-.015.044-.039-.005-.078-.013-.118-.017-.087-.01-.176-.015-.261-.026-.02-.003-.033-.021-.04-.033-.003-.004.024-.015.039-.015.056 0 .112.003.168.005zm-66.761-.418c-.004.032-.002.065-.013.096-.005.014-.035.025-.054.037-.012-.004-.032-.007-.037-.013-.043-.049-.093-.097-.118-.148-.007-.014.058-.035.094-.051.024-.012.054-.022.082-.032.018.013.047.026.05.04.007.023-.002.048-.004.071zM62.989.941zM63 .87c.005-.015.025-.028.039-.041.025.013.046.03.076.041.084.034.177.065.257.101.024.011.036.047.026.05-.142.032-.406-.02-.407-.08.002-.023 0-.048.01-.071zm62.156.27c.024-.006.072-.029.125-.03.066-.002.182.006.197.022a.6.6 0 01.115.196c.003.008-.082.035-.111.031-.172-.023-.334-.125-.326-.22zm-18.33-.008a4.92 4.92 0 00-.323.026l.043-.013-.004-.002.232-.013.052.002zm-.167-.006c-.038-.006-.072-.017-.108-.026l.08-.032c.027-.01.056-.03.081-.03.101.005.201.014.3.025.008 0 .012.04-.002.043a1.872 1.872 0 01-.236.024c-.058 0-.088 0-.115-.004zm-.22.023l.058-.028.045.022-.103.006zm.035.016c-.002 0-.007-.002.03-.007a.4.4 0 01-.03.007zm-38.07.047l.057-.027.024.011-.081.016zm.106-.004c-.023.007-.046.015-.072.02-.003 0-.016-.007.06-.026zm-.012-.006l-.013-.006a.36.36 0 00.046-.01l.033.002-.066.014zm.014-.016c.013-.012.02-.026.04-.036.005-.003.044.006.068.01a.334.334 0 01-.09.027zm39.74-.397l.013.006c.01 0 .019-.002.028-.003l-.025-.012-.017.009zM89.834.814l-.013-.01c-.021-.016-.035-.034-.053-.05l-.024.012a.157.157 0 01.016.056 4.6 4.6 0 00.074-.008zm-25.24.24v.001zm83.381.694a.307.307 0 00-.006.01h.005l.001-.01zm60.08-.261a.03.03 0 010 .013.518.518 0 01.022-.006l-.018-.008-.003.001zM80.203.661a.106.106 0 01-.013.01 7.03 7.03 0 01.025-.004zM66.84.707l.022.006A.29.29 0 0166.854.7zm-1.787.031a.323.323 0 01-.025.02l.048-.01-.023-.01z"/></svg>