<svg xmlns="http://www.w3.org/2000/svg" width="4" height="322"><path fill="#020202" d="M.97 203.118l-.023-.082c-.004.035-.013.092-.01.1.008.029.02.04.032.057zm-.215 21.405l-.023.097c.01.012.024.042.026.032.008-.034.011-.083.017-.126zm.698-11.767c.005-.019.015-.045.015-.05-.005-.038-.011-.071-.017-.106l-.022.072zm-.575.85zm0 0l-.026-.064-.018.057c.01.02.018.047.028.058.004.004.01-.032.016-.05zm.5 43.07l.023-.094c-.004-.02-.01-.058-.012-.054-.01.017-.02.045-.029.07l.018.078zM.7 250.822l-.03.055c.005.02.01.058.014.055.01-.006.02-.03.03-.047zm.055-2.39c.006-.036.013-.07.017-.11 0-.014-.008-.038-.012-.058-.006.037-.014.072-.017.111-.001.014.008.039.012.058zm-.045-.575l.014.062c.006-.037.013-.072.017-.111.001-.014-.008-.038-.012-.058l-.019.107zm.788-96.295l-.04.108.035.062zm-.765 91.126l-.03.056c.004.019.01.057.013.055.01-.007.02-.031.03-.049zm.157-4.577l-.023.097c.009.012.023.043.026.033.008-.035.011-.083.016-.126zm.353.085l-.03.055c.005.02.01.057.013.055.011-.007.021-.031.031-.048zm-.003-10.684l-.017.057c.01.02.018.047.028.058.004.004.01-.033.016-.05zm-.318 9.866l-.013-.11c-.005.017-.016.038-.015.052.001.04.007.077.01.116zm-.044-.318c.003.004.01-.032.016-.05-.01-.02-.018-.047-.028-.058-.004-.003-.01.033-.016.05.01.021.018.048.028.058zm.109-.01l.014.063c.006-.037.013-.072.016-.111.002-.014-.007-.039-.012-.058l-.018.106zm.225-.127c-.001.013.008.038.012.057.006-.036.013-.071.016-.11.002-.014-.007-.039-.012-.058-.006.036-.013.071-.016.11zm.104-64.534l-.039.108.035.061zM.76 236.224c.006-.036.013-.071.016-.11.002-.014-.007-.039-.012-.058-.006.036-.013.071-.016.11-.002.014.007.04.012.058zm.152-2.518c.006-.036.013-.071.017-.11.001-.015-.008-.039-.013-.058-.005.036-.013.071-.016.11-.001.014.008.039.012.058zm.613-37.404c.004.004.01-.032.016-.05-.01-.02-.018-.047-.028-.058-.004-.003-.01.033-.016.05.01.021.018.048.028.058zm-.155 84.174l.013.111c.005-.018.015-.04.015-.053-.001-.04-.007-.078-.01-.116zM.48 302.31l-.023.096c.009.013.023.043.026.033.008-.034.011-.083.016-.126zm.02 10.88l-.017.058c.01.02.018.047.028.058.004.004.01-.033.016-.05zm.149 4.749c.006-.037.013-.071.017-.111 0-.014-.009-.038-.013-.058-.006.037-.013.072-.016.111-.002.014.007.038.012.058zm.128-86.273l-.03-.178c-.007.068-.019.135-.022.205-.001.037.013.08.02.12l.032-.147zm.034 2.667l-.02.143c.012.021.025.066.035.058.014-.013.027-.064.04-.1a92.828 92.828 0 00-.055-.101zm.33 2.458c.006.002.014-.065.025-.125-.023-.017-.042-.04-.061-.04-.006.001-.013.067-.02.104.019.022.037.053.057.061zm-.28 1.988c.01.006.023-.047.042-.088-.023-.03-.04-.068-.06-.073-.01-.004-.023.047-.034.073.017.031.034.077.052.088zm.512 8.905l-.018-.154c-.01.08-.022.158-.03.242-.002.018.01.053.017.08zm-.319-57.76l-.017-.26c-.012.076-.028.148-.033.228-.004.07.005.15.008.225l.042-.192zM2.04 62.799c-.007.038-.023.105-.03.182-.002.027.017.08.026.122l.065-.294-.06-.01zm-.897 170.099c-.047-.008-.062-.02-.076-.009-.009.007-.016.05-.024.076.01.03.022.058.032.092.017.06.033.125.049.188-.021.049-.041.11-.063.144-.02.028-.047-.002-.06.041a.98.98 0 00-.014.218c0 .03.023.082.032.072.053-.057.1-.229.16-.138.013-.18.039-.371.033-.538-.004-.087-.062-.132-.07-.146zm-.031 5.857c-.098-.332.03-.615.026-.93 0-.05-.008-.142-.009-.141a1.53 1.53 0 00-.21.192c-.008.008-.006.156-.008.24.112-.03.09.35.118.58a.46.46 0 00.022.117c.012.02.028.01.042 0 .006-.003.012-.034.019-.058zm.072 2.179l-.128-.267-.038.149c-.017.064-.036.184-.052.183-.115-.013-.158.31-.202.624-.019.14-.05.375-.038.431.043.186.067-.08.09-.162.048-.166.094-.264.156-.206.06.056.07-.08.077-.275.004-.135-.022-.349.05-.384.028-.014.057-.061.085-.093zm-.274-5.857c.02.028.025.205.035.3-.013.136-.02.238-.031.337-.055.512-.036.62.101.548a.49.49 0 00.016-.142c-.021-.188-.023-.182.02-.186.043-.004.085-.017.127-.025-.026-.143-.054-.28-.077-.43-.027-.174-.06-.207-.106-.093-.002-.105-.009-.212-.004-.314a.454.454 0 01.038-.153c.012-.023.029.005.043.001.1-.025.101-.025.107-.414.001-.076-.007-.152-.01-.227-.013.08-.02.193-.038.232-.02.043-.05.037-.074.017-.025-.022-.046-.11-.07-.125-.05-.03-.094-.014-.039.228a1.72 1.72 0 01-.053.218c-.052.153-.029.168.015.228zm.058 4.514l.018-.106c.005.02.014.044.012.058-.003.04-.01.074-.016.11zm-.14 1.274c.029-.067.054-.114.075-.178.057-.17.101-.43.19-.349.016.015.045-.133.068-.205-.056-.197.035-.357.018-.52-.02-.184-.048.06-.059.036-.05-.116-.096-.26-.143-.4 0-.002.018-.071.02-.112.005-.15-.006-.208-.027-.162-.049.105-.08.323-.072.471.021.407.043.759-.108.862a.652.652 0 00-.026.202c.013.118.038.215.064.355zm.288 34.143l.017-.058c.004.038.01.075.011.116 0 .014-.01.035-.015.053a44.932 44.932 0 01-.013-.111zM.97 272.1l.017-.058c.004.038.01.075.01.116.001.014-.009.035-.014.053L.97 272.1zm-.048-.348l-.018.106c-.005-.02-.014-.044-.012-.057.003-.04.01-.075.016-.111l.014.062zm-.133-.785l-.015-.063c.01-.017.02-.04.031-.048.004-.002.009.036.013.055zm.451-5.64l.027.064c-.005.018-.012.054-.015.05-.01-.01-.02-.037-.029-.058zm-.083-.803c-.005.018-.012.055-.015.051-.01-.01-.019-.037-.028-.058.005-.018.012-.054.015-.05.01.01.02.037.028.057zm-.31-7.403l.015.062c-.01.018-.02.041-.03.049-.004.002-.01-.036-.014-.056l.03-.055zm.358-.474c-.004-.019-.013-.043-.012-.057.003-.04.01-.075.017-.111.004.019.013.044.012.058-.003.039-.01.074-.017.11zm.023-.65l.014.063c-.01.017-.02.041-.03.048-.004.003-.01-.036-.014-.055zm-.51-.957c-.003-.02-.012-.044-.011-.058.003-.04.01-.074.016-.11.005.018.014.043.012.057-.003.04-.01.074-.016.11zm.575-1.575l.014.063c-.01.017-.02.04-.03.047-.004.003-.01-.036-.014-.055zm-.106-.66l-.018.106c-.004-.02-.014-.044-.012-.058.003-.04.01-.074.016-.11zm-.041-.94l-.014-.062c.01-.018.02-.042.03-.048.004-.003.009.035.013.055l-.03.055zm-.147-.654l.014.063c-.01.017-.02.04-.03.047-.004.003-.01-.035-.014-.055l.03-.055zm.165.173c-.004-.02-.013-.044-.012-.058.003-.039.01-.074.017-.111.004.02.013.044.012.058-.004.039-.011.074-.017.11zM.91 248.18l-.018.106c-.005-.02-.014-.044-.012-.058.003-.039.01-.074.016-.111zm.216 31.067l-.018.106c-.005-.019-.014-.044-.012-.057.003-.04.01-.075.016-.111zm-.311 7.883l.026.064c-.005.018-.012.054-.016.05-.01-.01-.018-.037-.028-.057zm.047.346l.014.063c-.01.017-.02.041-.03.048-.004.002-.009-.036-.013-.055zm-.32 18.006l-.017.058c-.003-.039-.009-.076-.01-.116 0-.014.01-.035.015-.053zm.236.754l-.027-.065c.005-.018.012-.054.016-.05.01.01.019.037.028.057zm-.132 3.793l-.018.106c-.005-.02-.014-.044-.013-.058.004-.04.011-.074.017-.11zm.606 7.224l-.018.106c-.004-.02-.013-.044-.012-.058.003-.04.01-.074.016-.111zm-.143 2.18l-.018.106c-.005-.02-.014-.044-.013-.058.003-.039.01-.074.017-.11zm-.095.517c-.005.018-.012.054-.016.05-.01-.01-.019-.037-.028-.057.006-.018.012-.054.016-.05.01.01.019.037.028.057zm-.11-75.527l-.013-.149c.013-.017.028-.058.038-.046.013.017.023.073.035.112l-.06.083zm.109 1.347c.001.091.004.167.001.241 0 .023-.018.04-.028.06-.004-.075-.009-.15-.008-.224 0-.02.018-.042.035-.077zm-.14 5.021l.055.103c-.014.035-.026.086-.04.099-.011.008-.023-.037-.035-.058zm.17.946c-.011.06-.02.128-.024.125-.02-.008-.038-.038-.056-.061.006-.036.013-.103.019-.103.02-.001.038.023.061.04zm.178 6.065l.055.102c-.013.035-.026.087-.04.1-.01.008-.024-.037-.035-.058l.02-.144zm-.431.126c-.015-.042-.032-.07-.031-.089.003-.074.012-.146.019-.219.009.023.026.045.025.068 0 .074-.007.149-.013.24zm.21 4.53l-.04.057c-.003-.047-.013-.102-.01-.14.005-.054.02-.096.031-.142l.019.226zm-.112 33.557l-.04.056c-.003-.047-.013-.102-.01-.14.006-.053.021-.095.032-.142l.018.226zM.667 308.65l-.013-.15c.013-.016.028-.057.038-.045.013.017.023.073.035.112l-.06.083zm.254-61.69zm-.051-.09l.066-.27c.006.044.019.095.016.13-.006.082-.02.156-.031.23l-.051-.09zm.182-2.016zm-.026.201l-.067-.238c.012-.025.026-.079.035-.07.021.02.04.07.058.107zm.09 55.066zm.045.225a.804.804 0 01-.048.196c-.005.01-.037-.085-.036-.128.002-.08.02-.156.04-.293.025.123.048.197.044.225zm-.022-43.704l-.022.3c-.06-.084-.012-.266-.018-.4-.004-.104.004-.22.008-.33.001-.021.012-.059.015-.055.01.012.027.038.027.062 0 .11-.004.221-.01.423zm.021.92c-.015.178-.13.318-.166.209a.247.247 0 01-.013-.058c.022-.15.111.009.095-.318.015 0 .033-.021.043.003.017.04.028.11.041.164zm.029-11.187c.016.142.033.244.029.26-.033.12-.069.226-.106.325-.004.01-.02-.054-.03-.084l.107-.5zm-.196-1.013l.005.021a1.18 1.18 0 00-.018.034l-.012-.002.025-.053zm-.006.056c-.005.043-.009.092-.016.126-.003.01-.017-.02-.026-.033.005-.021.01-.043.035-.094zm.043-.091l-.023.095-.009-.039.032-.056zm-.041.016c.01-.025.018-.052.028-.07.002-.003.006.02-.024.09zm-.179 27.61l.012.096-.005.02a6.134 6.134 0 00-.008-.066l.001-.05zm-.002.075c-.01-.017-.023-.028-.032-.056-.002-.009.006-.066.01-.101.005.019.01.037.023.132zm.022.16l-.024-.085.01-.034.014.119zm-.002-.157c.005.035.012.068.016.106 0 .005-.006.023-.022-.088zm-.33 29.281zm.082.148a4.006 4.006 0 01-.039.542.944.944 0 000 .359c.035.217.017.42-.041.566-.073.183-.05.334-.008.535.053.25.047.276-.062.379-.053.05-.054.159-.036.295.024.186.042.416.081.532.078.23.033.567.059.822.03.309.02.522-.02.825-.021.157.038.458.06.696.006.078.023.202.015.235a1.25 1.25 0 00.014.647c.035.135.03.232 0 .418-.036.241-.068.51-.046.84.019.29-.052.61-.029.935-.052.111 0 .213-.004.298-.01.264.042.504-.01.797-.043.239 0 .535.03.754.03.22.044.384-.005.588-.007.028-.008.077-.011.116.138.097.038.352.019.56a1.309 1.309 0 00-.005.247c.027.176.09.261.034.579-.022.122.029.423.023.68-.005.198.014.457.033.594.034.253.013.478.019.713.004.179.008.396.036.513.048.204.018.418.022.628.003.2.046.131.093.107l-.008-.034c.01-.025.018-.052.029-.07.001-.004.008.033-.01.1.014-.015.007.017-.001.048l-.004-.018c-.027.157.051.23-.013.414-.037.109-.01.323.005.515.023.305.05.67-.04.978-.046.159-.026.256.032.324.06.07.063.231.024.47-.021.13-.013.401.01.538.03.19.067.343.045.594l.043.015c.008-.325.036-.257.097-.156.068.114.168-.174.181-.449.009-.167.01-.337.014-.506.01-.37.012-.364.11-.931.038-.213.102-.437.035-.725-.01-.044.005-.186.012-.28.035-.494.076-.985.104-1.484a3.032 3.032 0 00-.03-.522c-.026-.192.091-.339.008-.55-.037-.093-.042-.354-.067-.523-.021-.135-.072-.239-.074-.37-.003-.301-.01-.676.032-.9.056-.302.045-.593.05-.878.012-.62.023-1.023.106-1.52.045-.27-.015-.145-.03-.208a1.36 1.36 0 01-.02-.285c.006-.195-.017-.232-.06-.235-.024-.002-.079.092-.04-.186.04-.29.027-.292-.067-.538a1.424 1.424 0 01-.011-.397c.05-.207.042-.257-.024-.255.003-.056.003-.15.01-.16.035-.053.093.125.105-.14.004-.105-.03-.228-.047-.337-.035-.212-.006-.57-.096-.655.063-.288-.012-.576.014-.886.02-.24.042-.538-.013-.791a1.368 1.368 0 01.018-.376.745.745 0 00-.005-.476c-.039-.126-.031-.281-.032-.45 0-.295.051-.55.03-.88-.017-.288.01-.622.057-.94.04-.275-.014-.63-.026-.93-.012-.312-.054-.597-.034-.956.013-.235.005-.487 0-.728-.005-.206-.032-.413-.025-.612.014-.372.05-.735.068-1.106.013-.268.02-.522-.037-.767-.055-.23-.032-.573.014-.838.024-.139.011-.227.012-.354.004-.86-.081-1.673-.048-2.544.004-.113-.006-.275.01-.33.093-.321.032-.642.023-.966-.006-.235-.054-.438.013-.721.036-.153.025-.492.021-.74a.737.737 0 00-.064-.261c-.01-.023-.038.213-.056.02a.887.887 0 01.043-.224c.029-.1.103-.578.083-.662-.051-.22.037-.312.025-.476l-.047-.588c-.012-.172-.025-.346-.032-.524a3.216 3.216 0 01.001-.405c.042-.431.04-.855.035-1.298a22.06 22.06 0 01.037-1.432c.017-.315-.072-.368-.07-.455.006-.396-.022-.818.06-1.198.027-.122.085-.397 0-.59a1.322 1.322 0 01-.012-.366c.061-.234.053-.51.06-.778.005-.138.103-.367-.018-.397-.005-.001-.012-.038-.013-.061-.008-.232.112-.436.013-.703-.07-.192-.018-.518-.019-.783 0-.738.076-1.485.014-2.218-.005-.062.009-.155.016-.23.006-.062.026-.146.022-.173-.113-.668-.112-.665-.03-1.716.011-.152.014-.45 0-.468-.092-.114-.057-.206-.006-.387.08-.282.007-.386-.047-.514-.005.039-.008.08-.015.11-.002.01-.017-.021-.026-.033a.342.342 0 01.033-.096c.025-.272.069-.589.05-.81-.022-.236.069-.273.032-.482-.024-.138-.025-.342-.036-.516-.01-.174-.007-.405-.035-.511-.058-.217.065-.338.013-.546-.042-.168-.017-.354.014-.577a4.63 4.63 0 00.011-.78 4.532 4.532 0 01.024-.859c.043-.332.036-.336-.027-.693a1.5 1.5 0 010-.283c.01-.153.05-.352.038-.44-.039-.269-.077-.506-.02-.817-.056-.259-.015-.575-.024-.861-.01-.357-.046-.705.03-1.04-.048-.4-.004-.853-.03-1.258-.009-.123-.002-.149.01-.247.032-.254.048-.53-.017-.745a57.423 57.423 0 01-.006-.708c.012-.094.038-.26.035-.272-.088-.237.003-.428.02-.627.012-.144.03-1.07 0-1.163-.067-.216-.04-.49-.042-.761-.002-.435.05-.862.01-1.312-.015-.18.078-.45.008-.687.08-.178-.023-.515.05-.698-.064-.222-.02-.512-.02-.81l-.001.035c-.011-.018-.024-.029-.032-.057-.003-.008.006-.066.01-.101.007.028.015.055.022.12 0-.005 0-.004 0 0 .06.006.057-.119.035-.276-.009-.061-.015-.129-.023-.193-.024-.14-.061-.266-.07-.423-.017-.303.036-.656-.027-.937.06-.232.036-.59.084-.812.045-.213.052-.478.033-.615a2.562 2.562 0 01-.02-.541 1.718 1.718 0 00-.052-.585.633.633 0 01.007-.161c.061-.264.062-.261-.002-.342-.063-.081-.08-.19-.031-.475.058-.342.059-.613-.012-.872-.034-.122.006-.159.014-.24.012-.122.01-.262.013-.394l-.064.09c-.001-.188-.01-.377-.003-.562.008-.226-.011-.296-.067-.29-.032.003-.084.016-.025-.202.035-.13.061-.295.089-.451a.727.727 0 00.008-.173c-.043-.255-.013-.295.054-.355.07-.062.068-.282.034-.484-.04-.018-.111.03-.079-.227.046-.362 0-.702.022-1.048.005-.072 0-.216-.008-.223-.128-.11-.074-.578-.047-.716.066-.353.014-.582-.007-.86-.018-.22-.05-.413.058-.532.081-.089-.013-.299-.013-.47.002-.313-.034-.053-.059-.042-.033.017-.068-.019-.102-.032.01-.078.035-.195.03-.228-.03-.164-.104-.075-.127.136-.01.095-.02.26-.033.268-.043.025-.087-.01-.13-.02.005-.052.007-.126.016-.152.034-.092.099-.158.102-.253.01-.268.049-.236.093-.227.036.008.079.061.108.007.045-.083.082-.243.122-.37-.028-.097-.057-.191-.084-.291-.034-.131-.07-.257-.101-.402-.034-.16-.064-.186-.108-.032a5.76 5.76 0 00-.093.539c-.013.29-.038.119-.06.03-.044.224-.09.448-.131.678a.565.565 0 00.04.126c.073.109.04.425.018.449-.087.096-.079.189-.026.383.016.061.023.194.02.29-.01.309.005.51.093.612.042.049.004.12-.025.154-.03.037-.032.08.005.158.034.071.044.083.001.18-.076.172-.08.234-.028.317.06.093.06.171.024.345-.026.127-.054.256-.07.4-.01.075.003.267.008.267.124-.005 0 .555.09.614-.116.247.011.517-.015.79-.017.168.017.131.046.05.015-.042.043-.017.06-.059.035-.091.064-.263.108-.078-.026.085-.05.185-.08.253-.029.068-.063.105-.095.158-.018.03-.049.054-.051.097-.027.391-.048.785-.069 1.18 0 .012.018.036.045.025l-.009-.036c.01-.024.019-.052.029-.07.001-.003.008.034-.01.1.015-.015.007.017 0 .049l-.003-.01c-.03.29-.072.521-.042.802.013.12.022.369-.07.4-.054.019.015.172.015.29 0 .313.039.408.116.224.008-.02.032.064.05.1-.016.078-.027.201-.046.225-.111.138-.123.256-.119.733.004.443-.016.895-.027 1.342-.019.778-.02.778.076 1.687.005.047-.001.795 0 .867 0 .194.028.457.004.566-.045.211-.039.423-.041.632-.003.21-.042.445.008.638a.649.649 0 01-.023.132c-.014.042-.034.061-.05.09.029.173.084.273.073.556-.005.149-.067.214-.024.472.041.255.022.667.026 1.012.003.206.037.399-.012.63-.023.11-.007.33-.017.495-.013.218.126.23.037.577-.033.126-.014.433-.024.655-.011.238-.008.443.045.592a.46.46 0 01.02.118c-.07.4.028.705.025 1.072-.005.542-.076 1.101-.003 1.628-.102.524-.054 1.13-.084 1.693-.014.268-.027.547.04.763.02.064.014.247.017.377.008.283-.1.466-.046.829.03.202.008.53.004.802-.004.31-.027.626-.02.927.008.317.032.62.019.953-.007.161.028.397.009.486-.047.21-.027.43-.039.64-.01.192-.011.392-.016.589-.004.164-.02.358.053.331v.167c-.108.02-.072.184-.04.41.02.146-.008.359.033.53.022.093-.004.258-.055.246a.49.49 0 00-.02.133c.015.092.032.187.055.25.065.183.051.454.033.684-.078 1.015-.078 1.174.025 2.034a.982.982 0 01.002.224c-.023.11-.055.195-.083.29.024.064.048.127.071.194a.253.253 0 01-.008.054c-.136.177-.09.458-.058.811.021.238.01.584-.02.83-.059.48-.025.895.005 1.334.005.079-.017.187-.022.283-.003.051.002.155.004.155.12.01-.009.562.086.619-.09.35-.029.828-.077 1.182-.07.507.016.99-.033 1.471.05.3-.05.573-.024.874.011.13.02.276.016.413-.003.126-.022.251-.035.374-.014.122-.04.243-.04.36 0 .069.06.124.06.193 0 .321.017.66-.04.958-.034.183.007.144.028.165.052.05.026.12.003.203a.796.796 0 00-.018.142c-.016.307.125.302.09.501-.04.218-.076.398-.077.66 0 .085-.014.198-.004.248.036.189.06.41.01.583-.062.218.04.283.01.495-.028.181-.017.44-.023.666-.001.054 0 .135-.008.157-.075.2-.044.358 0 .537.027.114.048.254.068.392.02.136-.086.193-.024.395.011.034-.04.328-.029.376.043.175.02.365.02.551 0 .165-.02.414 0 .476.054.165-.036.27-.007.373.066.23-.056.526.01.75-.065.31.012.64-.023.96a.691.691 0 00.022.205.63.63 0 01-.017.484.629.629 0 00-.019.11c.086.247-.035.42-.023.633.002.043.016.08.027.104.017.039.036.065.054.095-.02.026-.04.039-.057.081-.01.025-.012.096-.018.146.097.01.025.173.022.315-.005.294-.104.55-.031.888.014.065-.034.327-.053.498.03.03.085-.068.082.148zm.679-26.813a.918.918 0 00.008.02l.001-.018-.01-.002zm.087-18.503v-.003.003zM.8 250.087a.055.055 0 01-.011.006l.007.033.004-.04zm.008 68.2a.451.451 0 01.006-.03.072.072 0 00-.012.004zM3.33 4.113l-.017.057c-.004-.038-.01-.075-.01-.115 0-.014.01-.036.015-.054zm-.06.244l.015.063c-.01.017-.02.04-.03.048-.004.002-.01-.036-.014-.056l.03-.055zm.021 1.276l-.017.057c-.003-.038-.01-.076-.01-.116-.001-.013.01-.035.015-.053zm-.165.092l.017-.057c.004.038.01.075.01.116.001.014-.009.035-.014.053a43.948 43.948 0 01-.013-.112zm.076 3.03l.014.062c-.01.017-.02.041-.03.048-.004.003-.009-.036-.013-.055zm.446 6.639zm-.027-.065c.005-.018.012-.054.016-.05.01.01.019.037.028.057l-.017.058zm-.547 1.882l.014.063c-.01.017-.02.041-.03.048-.004.002-.01-.035-.014-.055l.03-.056zm.498.907c-.005-.02-.014-.043-.013-.057.004-.04.011-.075.017-.111.004.019.013.044.012.058-.003.039-.01.074-.016.11zm.071.884l.014.064c-.01.016-.02.04-.03.047-.004.002-.009-.035-.013-.055zm-.646 1.818c-.005.018-.012.054-.016.05-.01-.01-.018-.037-.028-.057.006-.018.013-.054.016-.05.01.01.019.037.028.057zm.565.264c-.006.018-.013.054-.016.05-.01-.01-.019-.037-.028-.057.005-.018.012-.054.016-.05.01.01.019.037.028.057zm-.243.044c-.005-.019-.014-.044-.012-.057.003-.04.01-.075.016-.111.004.019.014.044.013.057-.004.04-.011.075-.017.111zm-.134.341l.014.063c-.01.017-.02.041-.031.048-.004.002-.009-.036-.013-.055l.03-.056zm-.102.916l-.018.058c-.003-.039-.009-.076-.01-.116 0-.014.01-.036.015-.053zm.041 6.342c-.004-.02-.013-.045-.012-.059.004-.039.01-.074.017-.11.004.02.013.044.012.057-.003.04-.01.075-.017.112zm.353 1.948l.014.063c-.01.017-.02.04-.031.048-.004.002-.009-.036-.013-.056zm-.43 1.708l-.018.058c-.003-.038-.01-.075-.01-.116 0-.014.01-.035.015-.053zM1.36 204.47zm.014.063c-.01.017-.02.04-.03.047-.005.003-.01-.035-.014-.055l.03-.055zm-.313-.028l-.017.057c-.004-.038-.01-.075-.011-.115 0-.014.01-.036.015-.054zM3.316 33.906l-.018.106c-.005-.02-.014-.044-.012-.058.003-.039.01-.074.016-.11zM2.79 35.26l-.027-.065c.005-.018.012-.054.016-.05.01.01.019.037.028.057zm.021 2.596l.014.063c-.01.017-.02.04-.03.047-.004.003-.01-.035-.014-.055zm.454 3.722l.019-.106c.004.02.013.044.012.058-.003.039-.01.074-.017.11zM.943 205.672l-.017.058c-.004-.039-.01-.076-.01-.116-.001-.014.009-.036.014-.054zm.416.3c-.004-.02-.013-.044-.012-.058.003-.04.01-.075.017-.111.004.02.013.044.012.058-.004.04-.011.074-.017.11zM2.603 45.45l.027.065c-.005.017-.012.054-.016.05-.01-.01-.019-.037-.028-.057zm.04 4.076l.015.063c-.01.017-.02.04-.031.048-.004.002-.009-.036-.013-.055zM2.4 51.691l.026.065c-.005.018-.012.054-.015.05-.01-.01-.02-.037-.028-.058zm.1 3.832l-.018.057c-.004-.038-.01-.075-.01-.115 0-.014.01-.035.015-.053zM1.21 224.066l-.026-.065c.005-.018.012-.054.015-.05.01.01.019.037.028.058zm.086-13.672l.014.063c-.01.017-.02.041-.03.048-.004.002-.01-.036-.013-.055zm.017.827c-.005-.02-.014-.045-.012-.058.003-.04.01-.074.016-.111.004.02.013.044.012.058-.003.039-.01.074-.016.11zM2.61 100.987l-.018.057c-.003-.038-.009-.075-.01-.116 0-.013.01-.035.015-.053l.013.112zm-.64 6.312c-.004.018-.011.054-.015.05-.01-.01-.019-.037-.028-.057.006-.018.013-.055.016-.05.01.01.019.036.028.057zm.527 6.302l.014.063c-.01.017-.02.04-.03.047-.004.003-.009-.035-.013-.055zm-.056 11.412c-.006.018-.012.054-.016.05-.01-.01-.019-.037-.028-.057.005-.018.012-.054.016-.05.01.01.018.037.028.057zm-.761 17.109l.014.062c-.01.017-.02.041-.031.048-.004.003-.009-.036-.013-.055zm-.78 86.69l.026.064c-.006.018-.012.054-.016.05-.01-.01-.019-.037-.028-.057zm.183-14.662c-.005.018-.012.054-.016.05-.01-.01-.019-.037-.028-.058.006-.018.012-.054.016-.05.01.01.019.037.028.058zm.927-62.223l-.018.058c-.004-.039-.01-.076-.01-.116 0-.014.01-.036.015-.053l.013.111zm-1.055 64.66c-.005-.02-.014-.044-.013-.058.004-.04.011-.074.017-.111.004.02.013.044.012.058-.003.04-.01.074-.016.11zm.362.17l-.017.058c-.003-.039-.009-.076-.01-.116 0-.014.01-.035.015-.053zm.462-56.693l-.014-.063c.01-.017.02-.04.03-.048.005-.002.01.036.014.055zm.1.065l.013.063c-.01.017-.02.04-.03.048-.004.003-.01-.036-.013-.055zm-.39.335c-.005.018-.012.054-.015.05-.01-.01-.019-.037-.028-.058.005-.018.012-.054.016-.05.01.01.018.037.028.058zm.176 4.547l.014.063c-.01.017-.02.04-.03.048-.004.002-.009-.036-.013-.055zm-.53 61.975l.013.062c-.01.017-.02.04-.03.048-.004.003-.009-.036-.013-.055l.03-.055zm.739-61.177l-.017.058c-.004-.038-.01-.076-.011-.116 0-.014.01-.035.015-.053zm-.06.62l-.018.106c-.005-.02-.014-.044-.012-.058.003-.04.01-.075.016-.111zm-.173 4.683l.014.062c-.01.018-.02.041-.03.048-.004.003-.01-.035-.014-.055zm-.19.089l-.015-.063c.01-.017.02-.041.031-.048.004-.003.009.036.013.055zm.06 1.536a7.493 7.493 0 00-.026-.065c.005-.018.012-.054.016-.05.01.01.018.037.028.058zm.17 7.454l-.016.057c-.004-.038-.01-.076-.011-.115 0-.014.01-.036.015-.054zm-.023 1.776c.01.021.018.043.027.065-.005.018-.012.054-.016.05-.01-.01-.019-.037-.028-.057zM.971 224.56c-.004-.02-.013-.044-.012-.057.004-.04.01-.075.017-.111.004.02.013.044.012.058-.003.039-.01.074-.017.11zm.393-31.922l-.018.106c-.004-.02-.013-.044-.012-.058.003-.04.01-.074.016-.11.005.019.01.038.014.062zm-.061 2.412l-.017.057c-.004-.038-.01-.075-.011-.115 0-.014.01-.035.015-.053zm-.253 28.36l.014.063c-.01.017-.02.04-.03.048-.004.002-.01-.036-.014-.055zm.31-24.39c-.004-.02-.013-.044-.012-.058.003-.04.01-.074.016-.111.005.02.014.044.013.058-.004.039-.01.074-.017.11zm.063.713c.01.021.018.042.027.065-.005.018-.012.054-.015.05-.01-.01-.02-.037-.029-.057zm.017-9.892c-.025.01-.045.026-.064.02-.005-.004-.009-.072-.013-.11.02-.016.039-.04.058-.042.005 0 .01.069.019.132zm-.352 7.077c-.01.055-.02.12-.03.186-.007-.045-.02-.092-.018-.131.004-.072.017-.139.026-.207zm.067 12.25c-.003.057-.005.127-.007.128a.077.077 0 01-.057-.01c-.001 0 0-.104.002-.105.02-.011.039-.01.062-.014zm-.171 3.36zm.001.242c-.001.024-.019.04-.03.06-.002-.075-.008-.149-.007-.223 0-.02.018-.043.036-.078 0 .092.004.168.001.241zm.092 3.478c-.01.054-.02.12-.03.185-.007-.044-.02-.092-.018-.131.004-.072.017-.138.026-.207zm-.048 1.362c-.015-.041-.032-.069-.03-.089.002-.074.011-.146.018-.218.01.022.026.045.026.068 0 .074-.008.148-.014.24zm.153 5.594l.055.102c-.013.034-.026.086-.04.099-.01.008-.023-.037-.035-.058zM.91 227.92l-.03.185c-.006-.044-.02-.092-.017-.13.003-.073.016-.139.025-.207l.022.152zm.093.58l-.013-.15c.013-.016.028-.057.037-.045.014.017.024.073.035.112-.012.017-.024.035-.06.083zM3.166 24.916c-.007.01-.023.04-.04.046a.605.605 0 01-.01-.133c.006-.054.02-.095.032-.141l.018.228zm.063.571c-.024.01-.044.026-.063.019-.007-.002-.01-.07-.014-.108.02-.017.039-.041.058-.043.006 0 .01.069.019.132zm-.135 7.948l.055.101c-.013.035-.026.087-.04.1-.01.009-.023-.037-.035-.059zm-.146.553l-.012-.148c.012-.017.027-.058.037-.046.013.017.023.072.035.112l-.06.082zm.218 4.664c-.006.01-.023.038-.04.046a.594.594 0 01-.01-.134c.006-.053.021-.094.032-.141l.018.229zm-.744 11.92l-.03.219c-.008-.05-.021-.096-.023-.152-.002-.039.01-.09.016-.135zm.046 54.372l.03-.185c.007.044.02.092.018.13-.004.073-.017.139-.026.207l-.022-.152zm.84-78.719c-.017.047-.035.11-.056.143-.008.014-.023-.033-.035-.053l.066-.274zm-1.795 160.3l-.07-.125c.018-.025.038-.075.056-.07.026.01.05.06.075.092l-.06.103zm-.291 39.522l-.081.21c-.004-.048-.015-.119-.01-.137a.731.731 0 01.056-.162c.006-.011.02.05.035.089zm.571-60.1l-.067.21c-.009-.05-.026-.134-.024-.143a.723.723 0 01.057-.158c.006-.01.02.052.034.091zm-.815 58.875l-.064.234c-.005-.072-.02-.183-.014-.206.017-.06.043-.087.066-.116a.815.815 0 01.012.088zm1.275-106.96c-.04.182-.049.235-.061.27-.014.041-.031.067-.047.1-.002-.075-.013-.19-.005-.216.018-.056.045-.067.113-.154zm.801-77.586c-.01-.077-.024-.142-.02-.162.022-.127.048-.245.074-.366.006.044.02.105.016.129-.02.133-.044.256-.07.399zm.016-21.992zm.028.257c-.013.07-.037.113-.056.167-.01-.058-.03-.128-.027-.17.007-.077.028-.138.055-.254.016.138.034.227.028.257zm.787-13.846c-.013-.142-.026-.223-.024-.303 0-.043.038-.127.042-.115.017.053.032.13.038.21.002.03-.025.095-.056.208zm-.743 34.554c.001-.055-.001-.116.005-.163a.854.854 0 01.035-.17c.008-.022.026.012.04.021-.006.058-.013.115-.017.173-.01.128-.016.259-.027.384a.095.095 0 01-.03.059c-.002.004-.012-.036-.012-.057 0-.082.004-.165.006-.247zm-1.043 97.83c.028.006.057.003.085.019.011.006.021.05.032.078-.004.019-.007.047-.012.055-.044.063-.087.137-.132.175-.013.01-.031-.086-.045-.138-.01-.036-.019-.08-.028-.12.012-.026.024-.069.036-.075.021-.01.043.004.064.007zm-1.095 93.082c-.021-.004-.043-.001-.064-.013-.012-.008-.024-.037-.036-.057.013-.037.027-.068.038-.111.031-.125.06-.26.092-.378.01-.036.042-.054.044-.039.028.208-.021.595-.074.598zm.803-91.095c-.005-.034-.025-.105-.026-.182 0-.097.007-.267.022-.289a.572.572 0 01.175-.17c.008-.005.03.12.027.162-.023.252-.115.49-.198.48zm-.192 26.86c.008.286.015.415.02.473l-.011-.063-.002.006a44.805 44.805 0 00-.01-.34l.003-.076zm-.007.244c-.006.057-.016.107-.025.16l-.027-.117c-.009-.04-.026-.082-.025-.12a9.95 9.95 0 01.025-.438c0-.012.035-.02.037.001.008.07.013.144.02.347-.002.084-.002.128-.005.167zm.018.322l-.024-.084.02-.066.004.15zm.015-.051zm-.343 55.785zm-.023-.084l.01-.035.014.12zm.022-.072c.005.035.012.068.016.105 0 .005-.006.024-.022-.087zm-.006.018l-.005.02a6.024 6.024 0 00-.008-.068v-.048l.013.096zm-.014-.02c-.011-.019-.023-.03-.032-.057-.003-.009.006-.067.01-.101.005.018.01.037.023.13zM2.1 62.807c.045.135.125.22.046.536-.005.022-.016.054-.016.054.08.401.08.79-.025 1.168.013.038.028.068.038.116.038.176.099.322.028.615-.017.067.001.256.004.388.004.184.01.368.012.553.002.319-.032.636.015.962.022.151.01.501-.023.634-.055.224-.009.329.015.366.076.117.113.179-.005.25-.027.276-.051.554-.08.826-.01.09-.043.184-.04.249.009.145.028.38.051.39.14.067-.014.234.005.364.017.123-.01.35.01.468.028.183.009.258-.015.423-.045.314-.102.676-.01 1-.049.26.025.508-.005.77-.023.195-.07.46-.054.584.032.244.025.468.02.71-.005.225-.017.452-.016.675.001.346-.018.759.023 1.017.048.298-.054.418-.024.639.028.203.061.412.07.635.007.207-.014.436-.025.654-.003.062-.026.131-.023.174.011.13.04.242.043.371.002.118-.03.25-.031.375-.007.571-.06 1.148-.003 1.713.011.116-.004.278-.01.418-.031.959-.03 1.315.044 2.004.021.204.037.19-.031.272-.055.065-.08.363-.044.634a3.52 3.52 0 01-.01 1.067c-.023.129-.021.317-.028.479-.007.195.007.466-.021.57-.074.272-.04.47-.015.728.024.247.07.483-.01.808-.053.215.002.634-.059.944-.052.27.009.566.016.827.01.321.019.636.008.956-.021.632.045 1.243 0 1.88a.675.675 0 00.038.213c.061.163.13.308.026.603.02.38-.09.726-.032 1.133a1.91 1.91 0 01-.013.488c-.074.29-.034.457.01.687.02.107.01.312.007.472-.006.5-.016 1-.024 1.5.095.238-.08.437-.015.704.046.192.025.45-.01.68a.688.688 0 00-.002.167c.011.06.031.094.047.139-.02.016-.04.026-.06.054a.424.424 0 00-.007.11.731.731 0 01-.01.417c-.031.107-.033.235.017.307.018.027.042.13.041.201-.003.655.031 1.298 0 1.965-.02.393-.055.822.01 1.2-.075.13.001.386-.044.577-.03.131-.055.324.03.492.1.198.016.715.044 1.076.019.249-.042.55.01.802a.42.42 0 01-.004.113c-.088.29-.086.678-.101 1.057-.005.11-.05.197-.072.307a.86.86 0 00.004.152c.074-.013.067.219.047.34-.041.258-.068.473.005.685.008.024.016.11.015.115-.104.32-.013.652-.023.972-.006.209.05.612-.082.621.003.06.004.123.008.18.04.528.107 1.057.056 1.622a4.81 4.81 0 00-.018.797c.018.275-.046.605.023.867.043.167-.082.238-.026.477.024.104.006.37 0 .56-.007.187-.022.37-.033.557-.003.058-.01.129-.006.176.07.683.022 1.396.013 2.102-.007.486-.061.981.002 1.462a.935.935 0 01-.05.422c.18.623-.036 1.511.067 2.185-.107.444-.018 1.05-.113 1.542-.06.31.015.825-.079 1.174 0 .002.024.073.026.12.008.202.15.11.078.404-.061.248.011.316.005.482-.015.426-.058.873.003 1.292.01.065-.01.205-.02.306-.01.098-.03.188-.035.287-.015.324-.004.632.011.956.012.253-.058.57-.054.842.009.626.035 1.248.067 1.86.007.143-.064.204-.012.38.024.083.003.365 0 .557-.002.169-.002.342-.014.504a5.13 5.13 0 01-.054.43 3.15 3.15 0 00-.017.785c.029.287.03.57.02.87-.006.195-.004.193.076.19.013 0 .034.018.036.048.006.069.007.155.002.226-.004.045-.027.07-.032.117-.02.188-.111-.001-.106.32.005.316-.051.671.032.935a.673.673 0 01-.007.411 2.025 2.025 0 00-.055.337c-.008.086-.01.218.002.283.069.377.076.408.019.861-.019.146-.035.249-.002.35.056.178.061.329-.011.484-.01.021-.017.074-.025.113.088.235-.027.417-.02.625.004.125.025.237.033.361.009.152.015.31.015.466.001.097-.015.199-.015.296 0 .13.006.262.016.384.023.271-.058.478-.028.8.026.285-.01.664-.019 1.002l-.024.928c-.007.31-.019.619-.022.928-.005.404-.045.81.007 1.213.016.12-.03.35-.035.533-.005.164.012.332.011.5 0 .062-.022.134-.036.193-.084.347.086.593.026.806a1.86 1.86 0 00-.033.854c.037.228.023.46.025.701.003.315.016.627.03.937 0 .013.048-.015.075-.023-.012.094-.023.188-.033.283-.008.075-.017.15-.021.227-.005.082-.005.168-.007.252l.035.062-.04.108c-.003.14.006.32-.013.411-.036.166-.07.264-.024.485.017.078 0 .316-.02.436a.857.857 0 00-.008.356c.034.172.014.326-.012.519a6.08 6.08 0 00-.037.716c0 .07.05.133.076.2-.016.085-.037.165-.046.259a.458.458 0 00.03.164c.027.055.06.079.09.116-.035.019-.07.031-.103.059-.024.02-.046.06-.07.09.02.025.047.028.056.08.013.08.016.192.018.292.003.272-.09.601.021.817a1.25 1.25 0 01-.018.207c-.113.066-.09.233-.04.478.023.11.036.299.03.44-.032.647.013 1.331-.09 1.946-.008.043.014.142.014.217.001.207.02.481-.008.61-.046.216 0 .366-.007.476-.017.243.1.33.023.592-.05.17.002.381.008.552.01.342.007.707-.047.922-.064.255-.002.372.011.608l.01-.035c.006.034.013.067.017.105 0 .006-.01.032-.025-.029.002.036-.001.034-.006.02-.08.288-.08.322.008.402.042.038.069.068.055.249-.018.229-.05.451-.058.681-.006.19-.094.41 0 .596.04.083-.006.152-.015.234-.024.24-.074.552-.054.72.031.262 0 .489.008.724 0 .027-.003.058-.002.084.012.183.116.236.034.57-.032.132-.025.44-.019.657.007.218.013.403-.015.625-.022.169-.004.399-.021.58-.016.164.07.232.011.408a.951.951 0 00.021.228c.063.166.05.443.062.677a.996.996 0 01-.03.26c-.09.308-.091.466-.004.71.009.025.009.095.013.143l.034.062-.039.107c-.02.232.008.48-.044.72-.023.108.012.377.01.573-.005.374.033.134.067.089.012-.015.05.145.05.235.002.067-.037.15-.058.227-.04-.167-.076-.092-.11.062.074.198-.058.382-.01.588.044.191.027.366-.011.582a2.352 2.352 0 00-.024.546c.026.195.038.283-.005.494-.021.103.01.382.028.563.007.071.045.092.069.135-.024.037-.05.063-.071.112a.51.51 0 00-.02.132c.064.28-.009.53-.019.793-.009.244.006.494 0 .74-.009.297-.029.593-.043.89-.011.226-.016.446.04.596.004.01.04.858.037.87-.062.165.035.248.007.399-.02.109-.04.222-.052.343a13.772 13.772 0 00-.042 1.904c.005.12.036.195-.008.303-.077.185-.085.496-.054.725.026.19-.016.217-.018.308-.003.08.035.159.05.251a.695.695 0 01-.002.174c-.06.293-.004.706-.085 1.002-.014.052.042.353.052.552.012.247.101.477 0 .779-.024.07-.005.329-.018.49-.02.275.038.325.064.48.034.209.033.42.11.16 0-.001.025.07.027.116.003.08.002.23-.006.242-.142.201-.093.654-.063 1.093a.455.455 0 00.038-.108c.015-.071.008-.368.047-.052.01.077.029.139.045.2.01.036.022.057.033.085-.01.03-.02.077-.032.083-.022.01-.044-.003-.124-.101.03.09 0 .092-.029.076-.007-.005-.014-.028-.021-.052-.09.08-.048.317-.06.499.016-.023.032-.054.048-.066.02-.014.04-.012.06-.017-.005.06-.008.126-.017.176-.028.155-.055.315-.09.45-.03.122-.018.212-.016.352.006.428.02.904-.022 1.287-.031.29.002.202.033.267a1.05 1.05 0 010 .27c-.037.17-.097.269-.09.547.005.163.014.168.05.08.009-.026.047.044.054.104.006.05-.012.152-.021.229-.003.024-.015.038-.016.057-.004.13-.114-.126-.055.233.023.14.013.363.087.332.053-.022.05-.128.06-.268.017-.233.08-.317.123-.168.01.034.002.146 0 .222 0 .004-.024.023-.029.004-.02-.077-.042-.194-.05.019-.005.106.012.223.02.335-.035.007-.072.032-.106.015-.085-.043-.055.353-.111.415.018.03.04.047.054.093a.554.554 0 01.006.152c-.085.338-.085.335-.021.692a.782.782 0 01-.005.159c-.117.079-.07.403-.066.628.003.2.02.412.046.581.045.291-.085.4-.048.663.007.044.01.095.014.143.01-.029.027-.056.028-.088.012-.372.047-.172.067-.043.022.138.012.662.003.923-.003.114.03.236.027.353-.002.125-.134-.003-.053.372.028.128-.013.393.02.62.03.222.03.428.107.168a.395.395 0 01.028.113.456.456 0 01-.015.137c-.028.023-.057.042-.084.023-.08-.057-.112.228-.165.358.009.044.015.11.027.129.106.156.11.237.029.686-.002.083.003.184-.008.246-.078.463-.07.934-.028 1.485l.012-.039c.006.034.013.067.017.105 0 .006-.01.032-.026-.029.003.052-.005.024-.012-.004l.004-.014c-.02-.04-.04-.024-.04-.008-.008.455-.07.922-.003 1.364.026.175-.083.32-.011.537.04.119.05.369.083.526.05.238.018.252-.037.23-.06-.022-.085.074-.06.282.013.096.032.131 0 .248-.045.167-.031.287.03.318.027.014.055.047.075.106.071.21.075.318.026.638-.024.152-.089.267-.028.474.033.116-.04.173-.011.374.042.294.022.359-.078.43-.053.036-.057.13-.048.277.008.125.026.243.027.368.003.411.048.04.073.05.014.004.027.016.04.024-.004.059-.007.128-.016.174-.026.124-.079.182-.065.4.025.422.022.505-.024.804-.058.377-.058.378.02.622.014.046.048.092.047.106-.016.173.072.365-.018.532-.033.062-.027.105.028.249a.557.557 0 01.011.141.557.557 0 01-.017.136c-.079-.004-.138.066-.13.442-.102.28.028.213.027.304-.006.3.033.462.092.596.023.05.032.11.005.244a4.49 4.49 0 00-.077.644c-.016.367.078.745-.022 1.126-.008.029.066.02.078.27.02.412.035.431-.054.633a3.14 3.14 0 00-.053.662c.106.493.05 1.028 0 1.542-.018.19-.038.276.026.345.03.032.049.172.073.262-.089.058-.009.518-.098.57-.028.017-.048-.014-.033.17.025.29.034.604.045.912.01.262.049.504-.015.8-.031.145-.016.435-.021.66.013.002.026.004.055-.027l-.01-.041c.01-.025.018-.053.029-.071.001-.003.008.034-.01.1.014-.014.007.018-.001.049l-.004-.016c-.04.236-.082.534-.069.578.066.212-.027.317-.016.463.003.044.02.07.031.103l.127.302c-.014.033-.028.088-.043.097-.054.031-.062.207-.036.279.056.156-.026.237-.009.368.013.097.015.216.034.394.003-.01.006-.018.008-.016.021.027.04.069.061.105-.011.021-.023.043-.06-.019.007.062-.008.024-.023-.015a.563.563 0 00.005-.02c-.035-.067-.065-.08-.066-.068-.01.155-.034.356-.019.463a.882.882 0 01-.014.424c-.013.045-.002.185-.003.281.086-.024.068.21.058.392-.01.198-.062.478-.044.568.046.227-.077.397-.005.627.028.089.001.415.004.63.005.317.038.06.061.03.013-.018.04-.02.04-.01.016.312.102.372.14.596a.601.601 0 01.001.154c-.012.051-.033.107-.05.105-.03-.005-.084.065-.077-.158.01-.304-.092-.12-.095-.345-.01.02-.022.034-.03.063a.304.304 0 00-.003.08c.017.113.04.216.054.333.024.19.05.393-.032.511.01.058.016.135.03.17.025.064.067.172.079.137.04-.107.013-.225-.008-.339-.01-.05-.002-.147-.003-.222.02.036.046.054.058.114.023.12.04.261.057.4.046.405.046.429-.06.434-.05.003-.084.048-.114.184a.518.518 0 00.012.144c.014.046.034.066.052.097-.031.11-.08.212-.034.383.005.015.06-.2.097-.278.035-.074.076-.107.114-.16-.008-.29.042-.586-.001-.893-.011-.077.049-.326.081-.482.038-.187-.07-.359.008-.544a.778.778 0 00.02-.528 1.051 1.051 0 01.02-.208c.089 0 .074-.249.085-.454.021-.396.05-.787.07-1.183.005-.074-.016-.227-.03-.233-.08-.03-.138-.071-.047-.41-.011-.04-.02-.107-.033-.117-.026-.02-.053-.016-.087-.02-.005.043-.008.092-.016.126-.003.01-.017-.021-.026-.032a.34.34 0 01.032-.096c.02-.222-.004-.52.099-.527.013-.25.114-.45.04-.751.06-.098-.027-.356.045-.495.023-.045.032-.403.014-.56-.053-.486-.013-.977 0-1.462.009-.342 0-.683.06-1.038.036-.215-.003-.616-.014-.93a9.952 9.952 0 00-.038-.597c-.016-.169-.055-.312-.06-.484-.009-.215.024-.471.008-.664-.018-.21.098-.276.028-.477a.483.483 0 01.012-.11c.14-.134.114-.5.072-.8-.028-.198-.01-.37-.014-.554-.007-.317.055-.664-.018-.956a.888.888 0 01.006-.24c.082-.262.022-.534.017-.794-.004-.241-.056-.472.018-.713.013-.042.01-.243-.004-.305-.053-.228-.032-.542-.007-.71.099-.653.058-1.234 0-1.836-.003-.038.031-.136.047-.206-.014-.14.068-.154.027-.397-.043-.251-.088-.598-.016-.973.017-.089 0-.342-.024-.456a1.997 1.997 0 01-.007-.628c.098-.576.046-1.202.084-1.791a.455.455 0 00-.014-.136c-.103-.015-.021-.189-.02-.321.006-.74.081-1.48.02-2.222-.016-.184.013-.433.024-.65.003-.062.025-.161.022-.17-.123-.41-.026-.948-.037-1.42.078-.195.004-.413.015-.62.01-.193-.004-.253-.053-.094a2.225 2.225 0 01-.144.355c-.014.029-.04-.026-.06-.042.018-.04.035-.096.054-.12.045-.055.016-.37.1-.356.044.008.109-.248.043-.566-.029-.14.01-.317.06-.093.001.007.042-.117.064-.18-.018-.043-.042-.07-.052-.132-.021-.12-.095-.2-.015-.424.066-.186-.054-.375.002-.646.036-.171.031-.48.033-.725 0-.118-.024-.237-.04-.349a8.285 8.285 0 01-.051-.548c.007-.045.02-.078.03-.116-.073-.247-.008-.581-.026-.86a.114.114 0 00-.034-.074c-.068-.064-.037-.178-.019-.35.019-.18.109-.326.04-.579.075-.167.048-.333.017-.542-.015-.098.006-.275.007-.415 0-.103-.008-.206-.012-.308-.031.05-.063.104-.095.15-.02.032-.042.055-.063.082.006-.132.002-.323.022-.383.037-.106.09-.194.134-.182.079.023.082-.14.084-.352.003-.197.01-.394.015-.59.01-.33-.021-.224-.064-.094-.01.029-.045-.01-.054-.06a.789.789 0 01.005-.215c.026-.09.06-.146.09-.215.057-.132.062-.166-.008-.333-.069-.165.018-.177.015-.271-.028-.934-.018-1.412.038-2.12a.562.562 0 00-.01-.148c-.014-.048-.035-.069-.052-.1.027-.086.064-.164.018-.304a1.33 1.33 0 01.03-.166c.034-.11.034-.176.027-.365-.011-.342-.035-.793.077-1.066.04-.096.013-.153 0-.243-.03-.222-.013-.444.001-.693.012-.192.083-.581-.047-.659-.005-.003 0-.288.01-.437.008-.155.048-.349.036-.447-.07-.555.039-1.187-.034-1.728.09-.296-.02-.342-.04-.48-.026-.175-.046-.255-.003-.49.04-.22.136-.511.045-.847.028-.055.078-.107.08-.167.009-.377.044-.748.01-1.14-.036-.427.014-.82.113-1.145a.959.959 0 00.03-.258 8.352 8.352 0 01-.043-1.489c.01-.212-.006-.31-.061-.321-.003 0-.01-.229.002-.27.057-.183.04-.42.043-.627.003-.233-.014-.466-.024-.697-.008-.182.087-.344.014-.536.048-.199.021-.407.019-.62-.002-.13.023-.27.036-.407-.153-.072.035-.338-.011-.47.066-.195.032-.235-.022-.244.003-.054.004-.147.011-.157.134-.182.127-.165.054-.712-.017-.13.068-.403-.005-.587v-1.71c0-.29.028-.502.083-.738.047-.198-.094-.332-.05-.674.035-.262.05-.56.067-.848.013-.217.019-.432-.033-.609-.021-.07-.022-.237-.028-.363-.008-.15.082-.262.014-.464-.024-.07-.017-.293-.023-.447-.002-.076-.01-.205-.001-.223.08-.187.014-.362.014-.55 0-.178-.043-.548.077-.549.007 0 .015-.14.025-.208.036-.223-.096-.409.002-.648.064-.16-.063-.439.03-.592-.026-.29-.047-.59-.08-.867-.012-.107-.007-.14.002-.248.046-.554.073-1.12-.003-1.653-.087.025-.06-.213-.058-.395.001-.184.008-.347.074-.29-.012-.239.04-.44.036-.666a.49.49 0 00-.05-.18c-.04-.094-.029-.125.01-.177.025-.032.04-.467.026-.573-.013-.091-.072-.151-.01-.303a.71.71 0 00.055-.224c-.006-.147-.025-.38-.05-.398-.072-.051-.036-.084-.022-.272.02-.286.045-.565.076-.839.013-.118.033-.228.05-.342-.03.027-.058.073-.086.072-.015 0-.039-.076-.04-.128a.718.718 0 01.027-.2c.035-.091.074-.156.11-.231-.11-.237.072-.519.004-.758-.058-.204.05-.706-.086-.773-.001 0 0-.15.007-.217.023-.193.048-.385.077-.567.03-.195-.016-.125-.033-.16a.331.331 0 01-.03-.089c.019-.152.104-.168.073-.404-.037-.275-.011-.34.056-.347.006-.001.016-.035.017-.055.018-.57.066-1.16.001-1.696-.038-.318-.081-.608-.06-.978.022-.346-.015-.726.06-1.041a.84.84 0 00.009-.217c-.054-.184-.021-.417-.02-.629.002-.196.02-.402.012-.588-.01-.216.065-.35.034-.561-.004-.024-.01-.043-.014-.063l.092-1.093c-.005-.616-.043-1.217-.033-1.841-.06-.19.013-.317.017-.467.003-.123-.07-.274-.063-.382.011-.187.02-.338.015-.542-.005-.288-.005-.535-.064-.735-.044-.15-.058-.264-.01-.54.08-.46.096-1.185.104-1.785.003-.231.015-.465.04-.712.043-.41.093-.91-.012-1.316a1.045 1.045 0 01-.003-.275c.06-.184.022-.298.005-.485-.022-.228-.08-.514.032-.762.056-.122.048-.43.021-.67-.013-.117-.128-.304.016-.36a.56.56 0 00.002-.11c-.082-.207-.065-.534-.047-.828.014-.24-.06-.483.015-.706-.054-.217.009-.414.016-.62.008-.198-.028-.405-.023-.524.017-.383.039-.735-.023-1.072a1.023 1.023 0 01.006-.24c.108-.145.004-.437.041-.67.04-.243.032-.591.041-.894.01-.281.015-.563.022-.844.008-.282.026-.57.018-.842-.005-.195-.062-.362-.065-.554-.002-.19.063-.44.049-.587-.035-.364.034-.628.05-.935.005-.104.035-.174-.012-.192-.054-.021-.059-.174-.032-.28a2.63 2.63 0 00.042-.845c-.022-.2-.015-.367-.014-.552 0-.275.036-.668.002-.803-.065-.258.07-.504-.009-.683.028-.368-.017-.78.062-1.126.012-.051-.001-.188-.004-.284a9.82 9.82 0 00-.014-.306c-.016-.24.076-.432.021-.715-.032-.17-.03-.443-.048-.662-.026-.32-.03-.621.032-.916.017-.08.08-.103.036-.291-.026-.12-.004-.39-.084-.35-.062.03-.06-.098-.039-.313.019-.19.125-.292.056-.574-.047-.188.062-.275.018-.553-.04-.248-.014-.701.085-.947a1.16 1.16 0 00.003-.277c-.06-.458-.063-.664-.04-1.2.015-.345.004-.685-.008-1.038-.028-.815-.06-1.447.054-2.594-.049-.13.022-.33-.002-.41a1.107 1.107 0 01-.01-.583c.07-.28.017-.55-.02-.619-.077-.14-.044-.198-.015-.409.09-.642.085-.655.047-1.265a.584.584 0 00-.04-.208c-.044-.05-.044-.13-.009-.193.077-.14.032-.32.035-.51.004-.183.068-.352.046-.587-.003-.03-.018-.043-.035-.06-.005.04-.009.085-.016.117-.003.01-.017-.02-.026-.032.008-.032.015-.065.033-.095.065-.308.102-.657.057-.985-.03-.223.054-.243.032-.4-.021-.148-.068-.395-.06-.426.063-.237-.014-.27-.028-.376a2.625 2.625 0 01.014-.692c.034-.26.069-.532.086-.81.012-.198-.082-.428.019-.618l-.026-.697c-.011-.294-.075-.597.022-.873a4.334 4.334 0 01-.003-.69c.019-.308-.086-.61-.008-.996.011-.057-.03-.267-.048-.406a4.96 4.96 0 01-.001-1.383c.014-.096-.024-.301-.01-.398.022-.142.066-.23.027-.416a.823.823 0 01.006-.174c.052-.433.062-.445.023-.978-.017-.218.094-.432-.001-.596.005-.278.005-.559.016-.835.01-.235-.015-.51.056-.696a.93.93 0 00-.002-.214c-.12-.18-.063-.472-.028-.763.01-.083.007-.192.005-.287-.002-.098-.023-.23-.012-.287.108-.574.057-1.16.023-1.71-.021-.338-.029-.624.022-.919.034-.197.031-.297-.031-.331a.575.575 0 01-.01-.146c.006-.097.033-.244.026-.277-.082-.34.017-.658.055-.714.076-.112.09-.22.037-.377-.095-.283-.062-.583-.04-.97.026-.44.034-.897.007-1.377-.026-.473.019-1.017-.057-1.474-.007-.041.011-.147.019-.222.012-.124.045-.295.035-.363-.052-.338.006-.728-.02-1.033-.03-.332-.011-.64-.018-.958-.002-.127-.042-.234-.065-.35.037-.074.077-.135.11-.228a.816.816 0 00.021-.212c-.07-.262-.022-.583-.017-.872.005-.292-.012-.618.063-.852-.076-.44.002-.954-.023-1.43-.009-.179-.055-.48.019-.706.012-.038.008-.19.003-.28-.015-.223-.04-.436-.05-.662-.012-.258.043-.556-.02-.787.061-.124-.02-.417.049-.531-.066-.225.038-.393.025-.63-.006-.108.07-.294-.024-.315a.484.484 0 01-.014-.136c.032-.468-.024-.992.106-1.406.05-.16.058-.533.079-.813a.44.44 0 00-.058-.144c-.018-.033-.039-.047-.058-.07.012-.057.022-.126.037-.17.031-.094.054-.304.061-.437.006-.096-.028-.555.065-.167.046-.132.045-.511 0-.667-.037-.123-.076-.237-.105-.382a1.128 1.128 0 01.004-.279c.055-.337.049-.638.014-.992-.028-.29-.088-.634.012-.972.018-.063.02-.279.007-.383a2.541 2.541 0 01.026-.82c.037-.203.007-.527.084-.733.069-.186-.025-.147-.025-.186-.004-.345-.1-.627-.024-1.035.047-.253.055-.561.016-.85a1.148 1.148 0 01.026-.514c.118-.342.062-.825.086-1.243-.124-.123-.049-.52-.067-.79-.014-.19-.026-.299.026-.44.057-.158.062-.396.016-.564-.081-.29-.014-.741-.074-1.042.082-.166.006-.358.011-.536.006-.21-.01-.424-.007-.635.002-.136.03-.27.034-.407.005-.134-.018-.282-.01-.406.048-.671.081-1.33.034-2.012a4.897 4.897 0 01.019-.75c.024-.244-.097-.415-.005-.662a1.083 1.083 0 00-.023-.229c-.079-.232.018-.652-.055-.883.006-.02.013-.034.017-.058.054-.36.053-.393-.017-.68a.574.574 0 01-.01-.149c.104-.529.122-.74.108-1.253-.002-.072.005-.152.01-.227.01-.155.115-.121.057-.411-.039-.197.026-.275.04-.412a.952.952 0 00-.014-.212c-.088.012-.05-.238-.06-.402-.006-.091-.048-.14-.074-.208.028-.056.077-.101.08-.168.01-.206.028-.405-.002-.636-.048-.368-.09-.784.002-1.199a1.209 1.209 0 01.051-.646c.018-.06.012-.22.028-.296.067-.31-.071-.553.004-.916.043-.209.036-.588.039-.89a5.502 5.502 0 00-.028-.608c-.022-.208.085-.322.022-.554-.036-.134.074-.298.013-.54-.027-.105-.015-.545.016-.633.09-.254.02-.442.01-.64-.016-.32-.049.058-.066.004a.849.849 0 01-.014-.212c.097-.298.02-.824.115-1.118-.056-.24-.014-.57-.04-.84-.043-.429-.015-.883.017-1.3.06-.776.056-1.142.052-1.991-.003-.666-.021-1.384.082-2.03.01-.066.017-.206.008-.241-.08-.301-.05-.751-.094-1.097-.006-.048-.022-.078-.026-.127-.008-.098-.025-.247-.014-.298.086-.382-.036-.857.048-1.172.033-.122.057-.208.082-.373.086-.553.054-1.14.08-1.706.002-.058-.05-.125-.068-.217-.005-.03.019-.149.03-.227-.108-.068-.063-.384-.064-.632-.001-.291.037-.58-.014-.881-.03-.175.04-.716-.105-.287a.256.256 0 01-.023-.088c-.002-.049.005-.106.007-.16.117.093.053-.62.164-.552-.004-.134.003-.298-.014-.398-.026-.155-.035-.242.012-.378.025-.074.043-.218.052-.34.024-.34-.013-.728.07-1.022a.31.31 0 00.003-.08c-.094-.536.003-.849.102-1.174a1.36 1.36 0 00.005-.28c-.012-.2-.033-.39-.046-.588a1.499 1.499 0 01.04-.521c.027-.095.02-.246-.032-.284-.016-.011-.034-.154-.032-.231.005-.139.031-.271.035-.409.004-.125-.027-.326-.014-.369.08-.272.007-.54.02-.799.009-.2-.088-.344-.01-.585.006-.019-.059-.289-.05-.413.017-.282.065-.54.067-.846 0-.037.025-.068.032-.115.046-.305-.033-.622-.006-.838.036-.296.075-.527.028-.823-.003-.023-.009-.042-.014-.062.085-.194-.01-.404.013-.625.021-.199.022-.394.066-.592.077-.339.133-.758.055-1.194-.04-.216-.043-.322.042-.37.043-.025.045-.209.014-.32-.095-.341-.051-.758-.024-1.152.017-.252.052-.49.078-.736a.532.532 0 00.002-.116c-.085-.238-.036-.607-.052-.91-.021-.374.01-.698.03-1.046.021-.37 0-.762.07-1.113.02-.102.017-.351-.001-.47-.028-.177-.03-.28.014-.42a.808.808 0 00.014-.218c-.063-.478-.013-.95.016-1.429.01-.147-.007-.319-.02-.466-.004-.028-.052-.016-.072.027-.018.036-.026.143-.038.218-.002-.105-.011-.216-.005-.316.023-.401.026-.423-.055-.504-.039-.04-.07-.04-.061-.237 0-.015-.025-.063-.037-.055-.06.04-.121.097-.182.145-.118.09-.19.308-.192.686-.002.284-.034.377-.095.44a.363.363 0 00-.049.164c.012.51-.124.789-.144 1.244 0 .021-.014.035-.016.058-.016.245.133.354.033.646-.063.185-.072.403-.078.657l-.045 1.772c-.002.085-.012.182-.005.25.008.076.034.12.048.19.008.038.016.12.011.147-.05.272-.088.548-.095.891-.005.26-.023 1.235-.008 1.509.004.076.013.214.01.22-.091.153.036.428-.034.599-.054.132-.03.282.003.404.048.178.056.29-.03.306a.845.845 0 00-.02.211c.017.17.035.346.065.48.043.196-.074.322-.014.548.025.094-.016.442.01.538.062.241-.052.28-.03.486.028.26.035.55.03.86-.006.322-.057.605-.036.964.02.333-.016.724-.02 1.09-.005.403-.044.809.005 1.217.01.08-.04.318-.001.572l.013-.046c.006.034.013.067.017.105.001.006-.009.032-.025-.029.002.05-.004.027-.012 0-.022.009-.042.064-.047.133-.02.263-.031.533-.047.799-.001.022-.01.039-.016.058.115.466-.005.988.004 1.478.002.06.035.138.057.15.048.03.083-.011.03.258-.025.132-.085.55.041.621l-.013.178c-.029.343-.058.684-.012 1.026a.758.758 0 01.009.147c-.014.145-.044.285-.045.424 0 .072.07.136.07.205-.004.24-.01.512-.041.71a.847.847 0 00.013.419c.04.135.048.242-.008.362-.035.074-.029.145-.02.302.02.335.02.702-.08.966-.045.122-.04.285.026.323.012.006.022.057.032.087-.129.25.034.769-.047.89-.113.169-.084.465-.067.64.05.517.066 1.04.031 1.58-.014.217.06.38-.007.641-.036.144-.032.501-.02.736.01.175.005.338.006.506.003.243-.008.496.004.729.018.344.051.703.01 1.027-.022.175-.05.327-.052.524-.003.309-.078.629-.003.93.007.027-.002.117-.006.175-.008.102-.014.208-.027.302-.048.353.075.666.003 1.009-.063.302-.02.667-.056.957-.039.294.068.45.012.764-.037.211-.032.525-.05.79-.02.342-.048.679-.068 1.021-.02.35-.036.702-.052 1.054a.833.833 0 00.004.175c.065.174.048.43.043.679-.005.21-.023.433.023.605-.058.12-.037.344-.054.52-.044.458.04.91-.02 1.363.042.16.04.377 0 .51-.061.203.056.317 0 .478-.075.217.045.503-.037.767-.07.225-.02.54-.002.824.01.159.003.36-.038.543-.03.138-.07.421.032.476.01.006.022.127.021.195-.001.25-.036.607-.006.728.048.192-.065.416.018.508l-.055.51c-.017.15.028.437-.068.419-.01-.002-.031.11-.034.172-.01.28-.026.569-.02.842.005.22-.086.388-.022.637.01.041-.038.273-.045.423-.006.132.02.378.01.394-.066.125.03.247-.01.38-.056.187-.054.341.03.35.015.001.03.007.044.007.067-.004.077.062.02.247-.018.061-.026.243-.04.247-.125.038-.036.416-.073.586.078.293.074.65.08 1.068.007.54.081 1.049-.001 1.616a.92.92 0 00.027.237c.056.22.098.405.024.75-.031.145-.012.438-.022.66-.022.456.01.942-.076 1.364a1.255 1.255 0 00-.008.324c.064.282-.01.6.012.912.024.349-.016.74-.075 1.081-.038.221-.065.469-.096.705zM1.324 163.84l.006-.02-.002-.041-.011.037.007.024zm-.206 27.116a.106.106 0 01.05-.024 10.978 10.978 0 00-.007-.107l-.008.018c-.015.032-.03.052-.046.078.004.01.007.023.01.035zm.012 36.85zM2.577 105.62a.273.273 0 00.009.01v-.008l-.01-.002zm.38-88.065l-.008.026.001.004a.016.016 0 01.012 0 1.17 1.17 0 01-.005-.03zM.928 204.943a.172.172 0 01.008.018 13.797 13.797 0 01-.003-.037zM.834 224.52l.006-.033a.308.308 0 01-.01.012zm.01 2.619a.5.5 0 01.017.035 4.44 4.44 0 01-.008-.07l-.009.035z"/></svg>